<?xml version="1.0" encoding="UTF-8"?>
<!DOCTYPE svg PUBLIC "-//W3C//DTD SVG 1.1//EN" "http://www.w3.org/Graphics/SVG/1.1/DTD/svg11.dtd">
<svg version="1.1" xmlns="http://www.w3.org/2000/svg" xmlns:xlink="http://www.w3.org/1999/xlink" x="0" y="0" width="765" height="420" viewBox="0, 0, 765, 420">
  <g id="Background">
    <rect x="0" y="0" width="765" height="420" fill="#000000" fill-opacity="0"/>
  </g>
  <g id="Layer_1">
    <g>
      <path d="M15.5,45.5 L45.5,45.5 L45.5,75.5 L15.5,75.5 L15.5,45.5 z" fill="#8FC7ED"/>
      <path d="M15.5,45.5 L45.5,45.5 L45.5,75.5 L15.5,75.5 L15.5,45.5 z" fill-opacity="0" stroke="#294270" stroke-width="2"/>
    </g>
    <g>
      <path d="M45.5,45.5 L75.5,45.5 L75.5,75.5 L45.5,75.5 L45.5,45.5 z" fill="#8FC7ED"/>
      <path d="M45.5,45.5 L75.5,45.5 L75.5,75.5 L45.5,75.5 L45.5,45.5 z" fill-opacity="0" stroke="#294270" stroke-width="2"/>
    </g>
    <g>
      <path d="M15.5,105.5 L45.5,105.5 L45.5,135.5 L15.5,135.5 L15.5,105.5 z" fill="#8FC7ED"/>
      <path d="M15.5,105.5 L45.5,105.5 L45.5,135.5 L15.5,135.5 L15.5,105.5 z" fill-opacity="0" stroke="#294270" stroke-width="2"/>
    </g>
    <g>
      <path d="M45.5,105.5 L75.5,105.5 L75.5,135.5 L45.5,135.5 L45.5,105.5 z" fill="#8FC7ED"/>
      <path d="M45.5,105.5 L75.5,105.5 L75.5,135.5 L45.5,135.5 L45.5,105.5 z" fill-opacity="0" stroke="#294270" stroke-width="2"/>
    </g>
    <g>
      <path d="M15.5,75.5 L45.5,75.5 L45.5,105.5 L15.5,105.5 L15.5,75.5 z" fill="#8FC7ED"/>
      <path d="M15.5,75.5 L45.5,75.5 L45.5,105.5 L15.5,105.5 L15.5,75.5 z" fill-opacity="0" stroke="#294270" stroke-width="2"/>
    </g>
    <g>
      <path d="M45.5,75.5 L75.5,75.5 L75.5,105.5 L45.5,105.5 L45.5,75.5 z" fill="#8FC7ED"/>
      <path d="M45.5,75.5 L75.5,75.5 L75.5,105.5 L45.5,105.5 L45.5,75.5 z" fill-opacity="0" stroke="#294270" stroke-width="2"/>
    </g>
    <g>
      <path d="M90.5,45.5 L120.5,45.5 L120.5,75.5 L90.5,75.5 L90.5,45.5 z" fill="#8FC7ED"/>
      <path d="M90.5,45.5 L120.5,45.5 L120.5,75.5 L90.5,75.5 L90.5,45.5 z" fill-opacity="0" stroke="#294270" stroke-width="2"/>
    </g>
    <g>
      <path d="M120.5,45.5 L150.5,45.5 L150.5,75.5 L120.5,75.5 L120.5,45.5 z" fill="#8FC7ED"/>
      <path d="M120.5,45.5 L150.5,45.5 L150.5,75.5 L120.5,75.5 L120.5,45.5 z" fill-opacity="0" stroke="#294270" stroke-width="2"/>
    </g>
    <g>
      <path d="M90.5,105.5 L120.5,105.5 L120.5,135.5 L90.5,135.5 L90.5,105.5 z" fill="#8FC7ED"/>
      <path d="M90.5,105.5 L120.5,105.5 L120.5,135.5 L90.5,135.5 L90.5,105.5 z" fill-opacity="0" stroke="#294270" stroke-width="2"/>
    </g>
    <g>
      <path d="M120.5,105.5 L150.5,105.5 L150.5,135.5 L120.5,135.5 L120.5,105.5 z" fill="#8FC7ED"/>
      <path d="M120.5,105.5 L150.5,105.5 L150.5,135.5 L120.5,135.5 L120.5,105.5 z" fill-opacity="0" stroke="#294270" stroke-width="2"/>
    </g>
    <g>
      <path d="M90.5,75.5 L120.5,75.5 L120.5,105.5 L90.5,105.5 L90.5,75.5 z" fill="#8FC7ED"/>
      <path d="M90.5,75.5 L120.5,75.5 L120.5,105.5 L90.5,105.5 L90.5,75.5 z" fill-opacity="0" stroke="#294270" stroke-width="2"/>
    </g>
    <g>
      <path d="M120.5,75.5 L150.5,75.5 L150.5,105.5 L120.5,105.5 L120.5,75.5 z" fill="#8FC7ED"/>
      <path d="M120.5,75.5 L150.5,75.5 L150.5,105.5 L120.5,105.5 L120.5,75.5 z" fill-opacity="0" stroke="#294270" stroke-width="2"/>
    </g>
    <g>
      <path d="M165.5,45.5 L195.5,45.5 L195.5,75.5 L165.5,75.5 L165.5,45.5 z" fill="#8FC7ED"/>
      <path d="M165.5,45.5 L195.5,45.5 L195.5,75.5 L165.5,75.5 L165.5,45.5 z" fill-opacity="0" stroke="#294270" stroke-width="2"/>
    </g>
    <g>
      <path d="M195.5,45.5 L225.5,45.5 L225.5,75.5 L195.5,75.5 L195.5,45.5 z" fill="#8FC7ED"/>
      <path d="M195.5,45.5 L225.5,45.5 L225.5,75.5 L195.5,75.5 L195.5,45.5 z" fill-opacity="0" stroke="#294270" stroke-width="2"/>
    </g>
    <g>
      <path d="M165.5,105.5 L195.5,105.5 L195.5,135.5 L165.5,135.5 L165.5,105.5 z" fill="#8FC7ED"/>
      <path d="M165.5,105.5 L195.5,105.5 L195.5,135.5 L165.5,135.5 L165.5,105.5 z" fill-opacity="0" stroke="#294270" stroke-width="2"/>
    </g>
    <g>
      <path d="M195.5,105.5 L225.5,105.5 L225.5,135.5 L195.5,135.5 L195.5,105.5 z" fill="#8FC7ED"/>
      <path d="M195.5,105.5 L225.5,105.5 L225.5,135.5 L195.5,135.5 L195.5,105.5 z" fill-opacity="0" stroke="#294270" stroke-width="2"/>
    </g>
    <g>
      <path d="M165.5,75.5 L195.5,75.5 L195.5,105.5 L165.5,105.5 L165.5,75.5 z" fill="#8FC7ED"/>
      <path d="M165.5,75.5 L195.5,75.5 L195.5,105.5 L165.5,105.5 L165.5,75.5 z" fill-opacity="0" stroke="#294270" stroke-width="2"/>
    </g>
    <g>
      <path d="M195.5,75.5 L225.5,75.5 L225.5,105.5 L195.5,105.5 L195.5,75.5 z" fill="#8FC7ED"/>
      <path d="M195.5,75.5 L225.5,75.5 L225.5,105.5 L195.5,105.5 L195.5,75.5 z" fill-opacity="0" stroke="#294270" stroke-width="2"/>
    </g>
    <g>
      <path d="M240.5,45.5 L270.5,45.5 L270.5,75.5 L240.5,75.5 L240.5,45.5 z" fill="#8FC7ED"/>
      <path d="M240.5,45.5 L270.5,45.5 L270.5,75.5 L240.5,75.5 L240.5,45.5 z" fill-opacity="0" stroke="#294270" stroke-width="2"/>
    </g>
    <g>
      <path d="M270.5,45.5 L300.5,45.5 L300.5,75.5 L270.5,75.5 L270.5,45.5 z" fill="#8FC7ED"/>
      <path d="M270.5,45.5 L300.5,45.5 L300.5,75.5 L270.5,75.5 L270.5,45.5 z" fill-opacity="0" stroke="#294270" stroke-width="2"/>
    </g>
    <g>
      <path d="M240.5,105.5 L270.5,105.5 L270.5,135.5 L240.5,135.5 L240.5,105.5 z" fill="#8FC7ED"/>
      <path d="M240.5,105.5 L270.5,105.5 L270.5,135.5 L240.5,135.5 L240.5,105.5 z" fill-opacity="0" stroke="#294270" stroke-width="2"/>
    </g>
    <g>
      <path d="M270.5,105.5 L300.5,105.5 L300.5,135.5 L270.5,135.5 L270.5,105.5 z" fill="#8FC7ED"/>
      <path d="M270.5,105.5 L300.5,105.5 L300.5,135.5 L270.5,135.5 L270.5,105.5 z" fill-opacity="0" stroke="#294270" stroke-width="2"/>
    </g>
    <g>
      <path d="M240.5,75.5 L270.5,75.5 L270.5,105.5 L240.5,105.5 L240.5,75.5 z" fill="#8FC7ED"/>
      <path d="M240.5,75.5 L270.5,75.5 L270.5,105.5 L240.5,105.5 L240.5,75.5 z" fill-opacity="0" stroke="#294270" stroke-width="2"/>
    </g>
    <g>
      <path d="M270.5,75.5 L300.5,75.5 L300.5,105.5 L270.5,105.5 L270.5,75.5 z" fill="#8FC7ED"/>
      <path d="M270.5,75.5 L300.5,75.5 L300.5,105.5 L270.5,105.5 L270.5,75.5 z" fill-opacity="0" stroke="#294270" stroke-width="2"/>
    </g>
    <g>
      <path d="M315.5,45.5 L345.5,45.5 L345.5,75.5 L315.5,75.5 L315.5,45.5 z" fill="#8FC7ED"/>
      <path d="M315.5,45.5 L345.5,45.5 L345.5,75.5 L315.5,75.5 L315.5,45.5 z" fill-opacity="0" stroke="#294270" stroke-width="2"/>
    </g>
    <g>
      <path d="M345.5,45.5 L375.5,45.5 L375.5,75.5 L345.5,75.5 L345.5,45.5 z" fill="#8FC7ED"/>
      <path d="M345.5,45.5 L375.5,45.5 L375.5,75.5 L345.5,75.5 L345.5,45.5 z" fill-opacity="0" stroke="#294270" stroke-width="2"/>
    </g>
    <g>
      <path d="M315.5,105.5 L345.5,105.5 L345.5,135.5 L315.5,135.5 L315.5,105.5 z" fill="#8FC7ED"/>
      <path d="M315.5,105.5 L345.5,105.5 L345.5,135.5 L315.5,135.5 L315.5,105.5 z" fill-opacity="0" stroke="#294270" stroke-width="2"/>
    </g>
    <g>
      <path d="M345.5,105.5 L375.5,105.5 L375.5,135.5 L345.5,135.5 L345.5,105.5 z" fill="#8FC7ED"/>
      <path d="M345.5,105.5 L375.5,105.5 L375.5,135.5 L345.5,135.5 L345.5,105.5 z" fill-opacity="0" stroke="#294270" stroke-width="2"/>
    </g>
    <g>
      <path d="M315.5,75.5 L345.5,75.5 L345.5,105.5 L315.5,105.5 L315.5,75.5 z" fill="#8FC7ED"/>
      <path d="M315.5,75.5 L345.5,75.5 L345.5,105.5 L315.5,105.5 L315.5,75.5 z" fill-opacity="0" stroke="#294270" stroke-width="2"/>
    </g>
    <g>
      <path d="M345.5,75.5 L375.5,75.5 L375.5,105.5 L345.5,105.5 L345.5,75.5 z" fill="#8FC7ED"/>
      <path d="M345.5,75.5 L375.5,75.5 L375.5,105.5 L345.5,105.5 L345.5,75.5 z" fill-opacity="0" stroke="#294270" stroke-width="2"/>
    </g>
    <g>
      <path d="M390.5,45.5 L420.5,45.5 L420.5,75.5 L390.5,75.5 L390.5,45.5 z" fill="#8FC7ED"/>
      <path d="M390.5,45.5 L420.5,45.5 L420.5,75.5 L390.5,75.5 L390.5,45.5 z" fill-opacity="0" stroke="#294270" stroke-width="2"/>
    </g>
    <g>
      <path d="M420.5,45.5 L450.5,45.5 L450.5,75.5 L420.5,75.5 L420.5,45.5 z" fill="#8FC7ED"/>
      <path d="M420.5,45.5 L450.5,45.5 L450.5,75.5 L420.5,75.5 L420.5,45.5 z" fill-opacity="0" stroke="#294270" stroke-width="2"/>
    </g>
    <g>
      <path d="M390.5,105.5 L420.5,105.5 L420.5,135.5 L390.5,135.5 L390.5,105.5 z" fill="#8FC7ED"/>
      <path d="M390.5,105.5 L420.5,105.5 L420.5,135.5 L390.5,135.5 L390.5,105.5 z" fill-opacity="0" stroke="#294270" stroke-width="2"/>
    </g>
    <g>
      <path d="M420.5,105.5 L450.5,105.5 L450.5,135.5 L420.5,135.5 L420.5,105.5 z" fill="#8FC7ED"/>
      <path d="M420.5,105.5 L450.5,105.5 L450.5,135.5 L420.5,135.5 L420.5,105.5 z" fill-opacity="0" stroke="#294270" stroke-width="2"/>
    </g>
    <g>
      <path d="M390.5,75.5 L420.5,75.5 L420.5,105.5 L390.5,105.5 L390.5,75.5 z" fill="#8FC7ED"/>
      <path d="M390.5,75.5 L420.5,75.5 L420.5,105.5 L390.5,105.5 L390.5,75.5 z" fill-opacity="0" stroke="#294270" stroke-width="2"/>
    </g>
    <g>
      <path d="M420.5,75.5 L450.5,75.5 L450.5,105.5 L420.5,105.5 L420.5,75.5 z" fill="#8FC7ED"/>
      <path d="M420.5,75.5 L450.5,75.5 L450.5,105.5 L420.5,105.5 L420.5,75.5 z" fill-opacity="0" stroke="#294270" stroke-width="2"/>
    </g>
    <g>
      <path d="M465.5,45.5 L495.5,45.5 L495.5,75.5 L465.5,75.5 L465.5,45.5 z" fill="#8FC7ED"/>
      <path d="M465.5,45.5 L495.5,45.5 L495.5,75.5 L465.5,75.5 L465.5,45.5 z" fill-opacity="0" stroke="#294270" stroke-width="2"/>
    </g>
    <g>
      <path d="M495.5,45.5 L525.5,45.5 L525.5,75.5 L495.5,75.5 L495.5,45.5 z" fill="#8FC7ED"/>
      <path d="M495.5,45.5 L525.5,45.5 L525.5,75.5 L495.5,75.5 L495.5,45.5 z" fill-opacity="0" stroke="#294270" stroke-width="2"/>
    </g>
    <g>
      <path d="M465.5,105.5 L495.5,105.5 L495.5,135.5 L465.5,135.5 L465.5,105.5 z" fill="#8FC7ED"/>
      <path d="M465.5,105.5 L495.5,105.5 L495.5,135.5 L465.5,135.5 L465.5,105.5 z" fill-opacity="0" stroke="#294270" stroke-width="2"/>
    </g>
    <g>
      <path d="M495.5,105.5 L525.5,105.5 L525.5,135.5 L495.5,135.5 L495.5,105.5 z" fill="#8FC7ED"/>
      <path d="M495.5,105.5 L525.5,105.5 L525.5,135.5 L495.5,135.5 L495.5,105.5 z" fill-opacity="0" stroke="#294270" stroke-width="2"/>
    </g>
    <g>
      <path d="M465.5,75.5 L495.5,75.5 L495.5,105.5 L465.5,105.5 L465.5,75.5 z" fill="#8FC7ED"/>
      <path d="M465.5,75.5 L495.5,75.5 L495.5,105.5 L465.5,105.5 L465.5,75.5 z" fill-opacity="0" stroke="#294270" stroke-width="2"/>
    </g>
    <g>
      <path d="M495.5,75.5 L525.5,75.5 L525.5,105.5 L495.5,105.5 L495.5,75.5 z" fill="#8FC7ED"/>
      <path d="M495.5,75.5 L525.5,75.5 L525.5,105.5 L495.5,105.5 L495.5,75.5 z" fill-opacity="0" stroke="#294270" stroke-width="2"/>
    </g>
    <g>
      <path d="M540.5,45.5 L570.5,45.5 L570.5,75.5 L540.5,75.5 L540.5,45.5 z" fill="#8FC7ED"/>
      <path d="M540.5,45.5 L570.5,45.5 L570.5,75.5 L540.5,75.5 L540.5,45.5 z" fill-opacity="0" stroke="#294270" stroke-width="2"/>
    </g>
    <g>
      <path d="M570.5,45.5 L600.5,45.5 L600.5,75.5 L570.5,75.5 L570.5,45.5 z" fill="#8FC7ED"/>
      <path d="M570.5,45.5 L600.5,45.5 L600.5,75.5 L570.5,75.5 L570.5,45.5 z" fill-opacity="0" stroke="#294270" stroke-width="2"/>
    </g>
    <g>
      <path d="M540.5,105.5 L570.5,105.5 L570.5,135.5 L540.5,135.5 L540.5,105.5 z" fill="#8FC7ED"/>
      <path d="M540.5,105.5 L570.5,105.5 L570.5,135.5 L540.5,135.5 L540.5,105.5 z" fill-opacity="0" stroke="#294270" stroke-width="2"/>
    </g>
    <g>
      <path d="M570.5,105.5 L600.5,105.5 L600.5,135.5 L570.5,135.5 L570.5,105.5 z" fill="#8FC7ED"/>
      <path d="M570.5,105.5 L600.5,105.5 L600.5,135.5 L570.5,135.5 L570.5,105.5 z" fill-opacity="0" stroke="#294270" stroke-width="2"/>
    </g>
    <g>
      <path d="M540.5,75.5 L570.5,75.5 L570.5,105.5 L540.5,105.5 L540.5,75.5 z" fill="#8FC7ED"/>
      <path d="M540.5,75.5 L570.5,75.5 L570.5,105.5 L540.5,105.5 L540.5,75.5 z" fill-opacity="0" stroke="#294270" stroke-width="2"/>
    </g>
    <g>
      <path d="M570.5,75.5 L600.5,75.5 L600.5,105.5 L570.5,105.5 L570.5,75.5 z" fill="#8FC7ED"/>
      <path d="M570.5,75.5 L600.5,75.5 L600.5,105.5 L570.5,105.5 L570.5,75.5 z" fill-opacity="0" stroke="#294270" stroke-width="2"/>
    </g>
    <g>
      <path d="M615.5,45.5 L645.5,45.5 L645.5,75.5 L615.5,75.5 L615.5,45.5 z" fill="#8FC7ED"/>
      <path d="M615.5,45.5 L645.5,45.5 L645.5,75.5 L615.5,75.5 L615.5,45.5 z" fill-opacity="0" stroke="#294270" stroke-width="2"/>
    </g>
    <g>
      <path d="M645.5,45.5 L675.5,45.5 L675.5,75.5 L645.5,75.5 L645.5,45.5 z" fill="#8FC7ED"/>
      <path d="M645.5,45.5 L675.5,45.5 L675.5,75.5 L645.5,75.5 L645.5,45.5 z" fill-opacity="0" stroke="#294270" stroke-width="2"/>
    </g>
    <g>
      <path d="M615.5,105.5 L645.5,105.5 L645.5,135.5 L615.5,135.5 L615.5,105.5 z" fill="#8FC7ED"/>
      <path d="M615.5,105.5 L645.5,105.5 L645.5,135.5 L615.5,135.5 L615.5,105.5 z" fill-opacity="0" stroke="#294270" stroke-width="2"/>
    </g>
    <g>
      <path d="M645.5,105.5 L675.5,105.5 L675.5,135.5 L645.5,135.5 L645.5,105.5 z" fill="#8FC7ED"/>
      <path d="M645.5,105.5 L675.5,105.5 L675.5,135.5 L645.5,135.5 L645.5,105.5 z" fill-opacity="0" stroke="#294270" stroke-width="2"/>
    </g>
    <g>
      <path d="M615.5,75.5 L645.5,75.5 L645.5,105.5 L615.5,105.5 L615.5,75.5 z" fill="#8FC7ED"/>
      <path d="M615.5,75.5 L645.5,75.5 L645.5,105.5 L615.5,105.5 L615.5,75.5 z" fill-opacity="0" stroke="#294270" stroke-width="2"/>
    </g>
    <g>
      <path d="M645.5,75.5 L675.5,75.5 L675.5,105.5 L645.5,105.5 L645.5,75.5 z" fill="#8FC7ED"/>
      <path d="M645.5,75.5 L675.5,75.5 L675.5,105.5 L645.5,105.5 L645.5,75.5 z" fill-opacity="0" stroke="#294270" stroke-width="2"/>
    </g>
    <g>
      <path d="M690.5,45.5 L720.5,45.5 L720.5,75.5 L690.5,75.5 L690.5,45.5 z" fill="#8FC7ED"/>
      <path d="M690.5,45.5 L720.5,45.5 L720.5,75.5 L690.5,75.5 L690.5,45.5 z" fill-opacity="0" stroke="#294270" stroke-width="2"/>
    </g>
    <g>
      <path d="M720.5,45.5 L750.5,45.5 L750.5,75.5 L720.5,75.5 L720.5,45.5 z" fill="#8FC7ED"/>
      <path d="M720.5,45.5 L750.5,45.5 L750.5,75.5 L720.5,75.5 L720.5,45.5 z" fill-opacity="0" stroke="#294270" stroke-width="2"/>
    </g>
    <g>
      <path d="M690.5,105.5 L720.5,105.5 L720.5,135.5 L690.5,135.5 L690.5,105.5 z" fill="#8FC7ED"/>
      <path d="M690.5,105.5 L720.5,105.5 L720.5,135.5 L690.5,135.5 L690.5,105.5 z" fill-opacity="0" stroke="#294270" stroke-width="2"/>
    </g>
    <g>
      <path d="M720.5,105.5 L750.5,105.5 L750.5,135.5 L720.5,135.5 L720.5,105.5 z" fill="#8FC7ED"/>
      <path d="M720.5,105.5 L750.5,105.5 L750.5,135.5 L720.5,135.5 L720.5,105.5 z" fill-opacity="0" stroke="#294270" stroke-width="2"/>
    </g>
    <g>
      <path d="M690.5,75.5 L720.5,75.5 L720.5,105.5 L690.5,105.5 L690.5,75.5 z" fill="#8FC7ED"/>
      <path d="M690.5,75.5 L720.5,75.5 L720.5,105.5 L690.5,105.5 L690.5,75.5 z" fill-opacity="0" stroke="#294270" stroke-width="2"/>
    </g>
    <g>
      <path d="M720.5,75.5 L750.5,75.5 L750.5,105.5 L720.5,105.5 L720.5,75.5 z" fill="#8FC7ED"/>
      <path d="M720.5,75.5 L750.5,75.5 L750.5,105.5 L720.5,105.5 L720.5,75.5 z" fill-opacity="0" stroke="#294270" stroke-width="2"/>
    </g>
    <text transform="matrix(1, 0, 0, 1, 47.754, 20.5)">
      <tspan x="-27.246" y="13.5" font-family="Roboto-Bold" font-size="36" fill="#294270">a/1</tspan>
    </text>
    <text transform="matrix(1, 0, 0, 1, 122.262, 20)">
      <tspan x="-27.738" y="13.5" font-family="Roboto-Bold" font-size="36" fill="#294270">b/2</tspan>
    </text>
    <text transform="matrix(1, 0, 0, 1, 198.105, 20)">
      <tspan x="-26.895" y="13.5" font-family="Roboto-Bold" font-size="36" fill="#294270">c/3</tspan>
    </text>
    <text transform="matrix(1, 0, 0, 1, 272.262, 20)">
      <tspan x="-27.738" y="13.5" font-family="Roboto-Bold" font-size="36" fill="#294270">d/4</tspan>
    </text>
    <text transform="matrix(1, 0, 0, 1, 347.895, 20)">
      <tspan x="-27.105" y="13.5" font-family="Roboto-Bold" font-size="36" fill="#294270">e/5</tspan>
    </text>
    <text transform="matrix(1, 0, 0, 1, 419.012, 20)">
      <tspan x="-24.012" y="13.5" font-family="Roboto-Bold" font-size="36" fill="#294270">f/6</tspan>
    </text>
    <text transform="matrix(1, 0, 0, 1, 497.262, 20)">
      <tspan x="-27.738" y="13.5" font-family="Roboto-Bold" font-size="36" fill="#294270">g/7</tspan>
    </text>
    <text transform="matrix(1, 0, 0, 1, 572.262, 20)">
      <tspan x="-27.738" y="13.5" font-family="Roboto-Bold" font-size="36" fill="#294270">h/8</tspan>
    </text>
    <text transform="matrix(1, 0, 0, 1, 647.386, 20)">
      <tspan x="-22.386" y="13.5" font-family="Roboto-Bold" font-size="36" fill="#294270">i/9</tspan>
    </text>
    <text transform="matrix(1, 0, 0, 1, 722.351, 20)">
      <tspan x="-22.351" y="13.5" font-family="Roboto-Bold" font-size="36" fill="#294270">j/0</tspan>
    </text>
    <path d="M30.254,70 C24.871,70 20.508,65.523 20.508,60 C20.508,54.477 24.871,50 30.254,50 C35.637,50 40,54.477 40,60 C40,65.523 35.637,70 30.254,70 z" fill="#294270"/>
    <path d="M435,70 C429.617,70 425.254,65.523 425.254,60 C425.254,54.477 429.617,50 435,50 C440.383,50 444.746,54.477 444.746,60 C444.746,65.523 440.383,70 435,70 z" fill="#294270"/>
    <path d="M404.746,70 C399.363,70 395,65.523 395,60 C395,54.477 399.363,50 404.746,50 C410.129,50 414.492,54.477 414.492,60 C414.492,65.523 410.129,70 404.746,70 z" fill="#294270"/>
    <path d="M404.746,100 C399.363,100 395,95.523 395,90 C395,84.477 399.363,80 404.746,80 C410.129,80 414.492,84.477 414.492,90 C414.492,95.523 410.129,100 404.746,100 z" fill="#294270"/>
    <path d="M360,100 C354.617,100 350.254,95.523 350.254,90 C350.254,84.477 354.617,80 360,80 C365.383,80 369.746,84.477 369.746,90 C369.746,95.523 365.383,100 360,100 z" fill="#294270"/>
    <path d="M330,70 C324.617,70 320.254,65.523 320.254,60 C320.254,54.477 324.617,50 330,50 C335.383,50 339.746,54.477 339.746,60 C339.746,65.523 335.383,70 330,70 z" fill="#294270"/>
    <path d="M285,100 C279.617,100 275.254,95.523 275.254,90 C275.254,84.477 279.617,80 285,80 C290.383,80 294.746,84.477 294.746,90 C294.746,95.523 290.383,100 285,100 z" fill="#294270"/>
    <path d="M285,70 C279.617,70 275.254,65.523 275.254,60 C275.254,54.477 279.617,50 285,50 C290.383,50 294.746,54.477 294.746,60 C294.746,65.523 290.383,70 285,70 z" fill="#294270"/>
    <path d="M255,70 C249.617,70 245.254,65.523 245.254,60 C245.254,54.477 249.617,50 255,50 C260.383,50 264.746,54.477 264.746,60 C264.746,65.523 260.383,70 255,70 z" fill="#294270"/>
    <path d="M210,70 C204.617,70 200.254,65.523 200.254,60 C200.254,54.477 204.617,50 210,50 C215.383,50 219.746,54.477 219.746,60 C219.746,65.523 215.383,70 210,70 z" fill="#294270"/>
    <path d="M180,70 C174.617,70 170.254,65.523 170.254,60 C170.254,54.477 174.617,50 180,50 C185.383,50 189.746,54.477 189.746,60 C189.746,65.523 185.383,70 180,70 z" fill="#294270"/>
    <path d="M105,100 C99.617,100 95.254,95.523 95.254,90 C95.254,84.477 99.617,80 105,80 C110.383,80 114.746,84.477 114.746,90 C114.746,95.523 110.383,100 105,100 z" fill="#294270"/>
    <path d="M105,70 C99.617,70 95.254,65.523 95.254,60 C95.254,54.477 99.617,50 105,50 C110.383,50 114.746,54.477 114.746,60 C114.746,65.523 110.383,70 105,70 z" fill="#294270"/>
    <path d="M555,100 C549.617,100 545.254,95.523 545.254,90 C545.254,84.477 549.617,80 555,80 C560.383,80 564.746,84.477 564.746,90 C564.746,95.523 560.383,100 555,100 z" fill="#294270"/>
    <path d="M555,70 C549.617,70 545.254,65.523 545.254,60 C545.254,54.477 549.617,50 555,50 C560.383,50 564.746,54.477 564.746,60 C564.746,65.523 560.383,70 555,70 z" fill="#294270"/>
    <path d="M510,70 C504.617,70 500.254,65.523 500.254,60 C500.254,54.477 504.617,50 510,50 C515.383,50 519.746,54.477 519.746,60 C519.746,65.523 515.383,70 510,70 z" fill="#294270"/>
    <path d="M480,70 C474.617,70 470.254,65.523 470.254,60 C470.254,54.477 474.617,50 480,50 C485.383,50 489.746,54.477 489.746,60 C489.746,65.523 485.383,70 480,70 z" fill="#294270"/>
    <path d="M510,100 C504.617,100 500.254,95.523 500.254,90 C500.254,84.477 504.617,80 510,80 C515.383,80 519.746,84.477 519.746,90 C519.746,95.523 515.383,100 510,100 z" fill="#294270"/>
    <path d="M480,100 C474.617,100 470.254,95.523 470.254,90 C470.254,84.477 474.617,80 480,80 C485.383,80 489.746,84.477 489.746,90 C489.746,95.523 485.383,100 480,100 z" fill="#294270"/>
    <path d="M734.955,100 C729.572,100 725.209,95.523 725.209,90 C725.209,84.477 729.572,80 734.955,80 C740.338,80 744.701,84.477 744.701,90 C744.701,95.523 740.338,100 734.955,100 z" fill="#294270"/>
    <path d="M705,100 C699.617,100 695.254,95.523 695.254,90 C695.254,84.477 699.617,80 705,80 C710.383,80 714.746,84.477 714.746,90 C714.746,95.523 710.383,100 705,100 z" fill="#294270"/>
    <path d="M660,70 C654.617,70 650.254,65.523 650.254,60 C650.254,54.477 654.617,50 660,50 C665.383,50 669.746,54.477 669.746,60 C669.746,65.523 665.383,70 660,70 z" fill="#294270"/>
    <path d="M630,100 C624.617,100 620.254,95.523 620.254,90 C620.254,84.477 624.617,80 630,80 C635.383,80 639.746,84.477 639.746,90 C639.746,95.523 635.383,100 630,100 z" fill="#294270"/>
    <path d="M585,100 C579.617,100 575.254,95.523 575.254,90 C575.254,84.477 579.617,80 585,80 C590.383,80 594.746,84.477 594.746,90 C594.746,95.523 590.383,100 585,100 z" fill="#294270"/>
    <path d="M734.955,70 C729.572,70 725.209,65.523 725.209,60 C725.209,54.477 729.572,50 734.955,50 C740.338,50 744.701,54.477 744.701,60 C744.701,65.523 740.338,70 734.955,70 z" fill="#294270"/>
    <g>
      <path d="M15.5,180 L45.5,180 L45.5,210 L15.5,210 L15.5,180 z" fill="#8FC7ED"/>
      <path d="M15.5,180 L45.5,180 L45.5,210 L15.5,210 L15.5,180 z" fill-opacity="0" stroke="#294270" stroke-width="2"/>
    </g>
    <g>
      <path d="M45.5,180 L75.5,180 L75.5,210 L45.5,210 L45.5,180 z" fill="#8FC7ED"/>
      <path d="M45.5,180 L75.5,180 L75.5,210 L45.5,210 L45.5,180 z" fill-opacity="0" stroke="#294270" stroke-width="2"/>
    </g>
    <g>
      <path d="M15.5,240 L45.5,240 L45.5,270 L15.5,270 L15.5,240 z" fill="#8FC7ED"/>
      <path d="M15.5,240 L45.5,240 L45.5,270 L15.5,270 L15.5,240 z" fill-opacity="0" stroke="#294270" stroke-width="2"/>
    </g>
    <g>
      <path d="M45.5,240 L75.5,240 L75.5,270 L45.5,270 L45.5,240 z" fill="#8FC7ED"/>
      <path d="M45.5,240 L75.5,240 L75.5,270 L45.5,270 L45.5,240 z" fill-opacity="0" stroke="#294270" stroke-width="2"/>
    </g>
    <g>
      <path d="M15.5,210 L45.5,210 L45.5,240 L15.5,240 L15.5,210 z" fill="#8FC7ED"/>
      <path d="M15.5,210 L45.5,210 L45.5,240 L15.5,240 L15.5,210 z" fill-opacity="0" stroke="#294270" stroke-width="2"/>
    </g>
    <g>
      <path d="M45.5,210 L75.5,210 L75.5,240 L45.5,240 L45.5,210 z" fill="#8FC7ED"/>
      <path d="M45.5,210 L75.5,210 L75.5,240 L45.5,240 L45.5,210 z" fill-opacity="0" stroke="#294270" stroke-width="2"/>
    </g>
    <g>
      <path d="M90.5,180 L120.5,180 L120.5,210 L90.5,210 L90.5,180 z" fill="#8FC7ED"/>
      <path d="M90.5,180 L120.5,180 L120.5,210 L90.5,210 L90.5,180 z" fill-opacity="0" stroke="#294270" stroke-width="2"/>
    </g>
    <g>
      <path d="M120.5,180 L150.5,180 L150.5,210 L120.5,210 L120.5,180 z" fill="#8FC7ED"/>
      <path d="M120.5,180 L150.5,180 L150.5,210 L120.5,210 L120.5,180 z" fill-opacity="0" stroke="#294270" stroke-width="2"/>
    </g>
    <g>
      <path d="M90.5,240 L120.5,240 L120.5,270 L90.5,270 L90.5,240 z" fill="#8FC7ED"/>
      <path d="M90.5,240 L120.5,240 L120.5,270 L90.5,270 L90.5,240 z" fill-opacity="0" stroke="#294270" stroke-width="2"/>
    </g>
    <g>
      <path d="M120.5,240 L150.5,240 L150.5,270 L120.5,270 L120.5,240 z" fill="#8FC7ED"/>
      <path d="M120.5,240 L150.5,240 L150.5,270 L120.5,270 L120.5,240 z" fill-opacity="0" stroke="#294270" stroke-width="2"/>
    </g>
    <g>
      <path d="M90.5,210 L120.5,210 L120.5,240 L90.5,240 L90.5,210 z" fill="#8FC7ED"/>
      <path d="M90.5,210 L120.5,210 L120.5,240 L90.5,240 L90.5,210 z" fill-opacity="0" stroke="#294270" stroke-width="2"/>
    </g>
    <g>
      <path d="M120.5,210 L150.5,210 L150.5,240 L120.5,240 L120.5,210 z" fill="#8FC7ED"/>
      <path d="M120.5,210 L150.5,210 L150.5,240 L120.5,240 L120.5,210 z" fill-opacity="0" stroke="#294270" stroke-width="2"/>
    </g>
    <g>
      <path d="M165.5,180 L195.5,180 L195.5,210 L165.5,210 L165.5,180 z" fill="#8FC7ED"/>
      <path d="M165.5,180 L195.5,180 L195.5,210 L165.5,210 L165.5,180 z" fill-opacity="0" stroke="#294270" stroke-width="2"/>
    </g>
    <g>
      <path d="M195.5,180 L225.5,180 L225.5,210 L195.5,210 L195.5,180 z" fill="#8FC7ED"/>
      <path d="M195.5,180 L225.5,180 L225.5,210 L195.5,210 L195.5,180 z" fill-opacity="0" stroke="#294270" stroke-width="2"/>
    </g>
    <g>
      <path d="M165.5,240 L195.5,240 L195.5,270 L165.5,270 L165.5,240 z" fill="#8FC7ED"/>
      <path d="M165.5,240 L195.5,240 L195.5,270 L165.5,270 L165.5,240 z" fill-opacity="0" stroke="#294270" stroke-width="2"/>
    </g>
    <g>
      <path d="M195.5,240 L225.5,240 L225.5,270 L195.5,270 L195.5,240 z" fill="#8FC7ED"/>
      <path d="M195.5,240 L225.5,240 L225.5,270 L195.5,270 L195.5,240 z" fill-opacity="0" stroke="#294270" stroke-width="2"/>
    </g>
    <g>
      <path d="M165.5,210 L195.5,210 L195.5,240 L165.5,240 L165.5,210 z" fill="#8FC7ED"/>
      <path d="M165.5,210 L195.5,210 L195.5,240 L165.5,240 L165.5,210 z" fill-opacity="0" stroke="#294270" stroke-width="2"/>
    </g>
    <g>
      <path d="M195.5,210 L225.5,210 L225.5,240 L195.5,240 L195.5,210 z" fill="#8FC7ED"/>
      <path d="M195.5,210 L225.5,210 L225.5,240 L195.5,240 L195.5,210 z" fill-opacity="0" stroke="#294270" stroke-width="2"/>
    </g>
    <g>
      <path d="M240.5,180 L270.5,180 L270.5,210 L240.5,210 L240.5,180 z" fill="#8FC7ED"/>
      <path d="M240.5,180 L270.5,180 L270.5,210 L240.5,210 L240.5,180 z" fill-opacity="0" stroke="#294270" stroke-width="2"/>
    </g>
    <g>
      <path d="M270.5,180 L300.5,180 L300.5,210 L270.5,210 L270.5,180 z" fill="#8FC7ED"/>
      <path d="M270.5,180 L300.5,180 L300.5,210 L270.5,210 L270.5,180 z" fill-opacity="0" stroke="#294270" stroke-width="2"/>
    </g>
    <g>
      <path d="M240.5,240 L270.5,240 L270.5,270 L240.5,270 L240.5,240 z" fill="#8FC7ED"/>
      <path d="M240.5,240 L270.5,240 L270.5,270 L240.5,270 L240.5,240 z" fill-opacity="0" stroke="#294270" stroke-width="2"/>
    </g>
    <g>
      <path d="M270.5,240 L300.5,240 L300.5,270 L270.5,270 L270.5,240 z" fill="#8FC7ED"/>
      <path d="M270.5,240 L300.5,240 L300.5,270 L270.5,270 L270.5,240 z" fill-opacity="0" stroke="#294270" stroke-width="2"/>
    </g>
    <g>
      <path d="M240.5,210 L270.5,210 L270.5,240 L240.5,240 L240.5,210 z" fill="#8FC7ED"/>
      <path d="M240.5,210 L270.5,210 L270.5,240 L240.5,240 L240.5,210 z" fill-opacity="0" stroke="#294270" stroke-width="2"/>
    </g>
    <g>
      <path d="M270.5,210 L300.5,210 L300.5,240 L270.5,240 L270.5,210 z" fill="#8FC7ED"/>
      <path d="M270.5,210 L300.5,210 L300.5,240 L270.5,240 L270.5,210 z" fill-opacity="0" stroke="#294270" stroke-width="2"/>
    </g>
    <g>
      <path d="M315.5,180 L345.5,180 L345.5,210 L315.5,210 L315.5,180 z" fill="#8FC7ED"/>
      <path d="M315.5,180 L345.5,180 L345.5,210 L315.5,210 L315.5,180 z" fill-opacity="0" stroke="#294270" stroke-width="2"/>
    </g>
    <g>
      <path d="M345.5,180 L375.5,180 L375.5,210 L345.5,210 L345.5,180 z" fill="#8FC7ED"/>
      <path d="M345.5,180 L375.5,180 L375.5,210 L345.5,210 L345.5,180 z" fill-opacity="0" stroke="#294270" stroke-width="2"/>
    </g>
    <g>
      <path d="M315.5,240 L345.5,240 L345.5,270 L315.5,270 L315.5,240 z" fill="#8FC7ED"/>
      <path d="M315.5,240 L345.5,240 L345.5,270 L315.5,270 L315.5,240 z" fill-opacity="0" stroke="#294270" stroke-width="2"/>
    </g>
    <g>
      <path d="M345.5,240 L375.5,240 L375.5,270 L345.5,270 L345.5,240 z" fill="#8FC7ED"/>
      <path d="M345.5,240 L375.5,240 L375.5,270 L345.5,270 L345.5,240 z" fill-opacity="0" stroke="#294270" stroke-width="2"/>
    </g>
    <g>
      <path d="M315.5,210 L345.5,210 L345.5,240 L315.5,240 L315.5,210 z" fill="#8FC7ED"/>
      <path d="M315.5,210 L345.5,210 L345.5,240 L315.5,240 L315.5,210 z" fill-opacity="0" stroke="#294270" stroke-width="2"/>
    </g>
    <g>
      <path d="M345.5,210 L375.5,210 L375.5,240 L345.5,240 L345.5,210 z" fill="#8FC7ED"/>
      <path d="M345.5,210 L375.5,210 L375.5,240 L345.5,240 L345.5,210 z" fill-opacity="0" stroke="#294270" stroke-width="2"/>
    </g>
    <g>
      <path d="M390.5,180 L420.5,180 L420.5,210 L390.5,210 L390.5,180 z" fill="#8FC7ED"/>
      <path d="M390.5,180 L420.5,180 L420.5,210 L390.5,210 L390.5,180 z" fill-opacity="0" stroke="#294270" stroke-width="2"/>
    </g>
    <g>
      <path d="M420.5,180 L450.5,180 L450.5,210 L420.5,210 L420.5,180 z" fill="#8FC7ED"/>
      <path d="M420.5,180 L450.5,180 L450.5,210 L420.5,210 L420.5,180 z" fill-opacity="0" stroke="#294270" stroke-width="2"/>
    </g>
    <g>
      <path d="M390.5,240 L420.5,240 L420.5,270 L390.5,270 L390.5,240 z" fill="#8FC7ED"/>
      <path d="M390.5,240 L420.5,240 L420.5,270 L390.5,270 L390.5,240 z" fill-opacity="0" stroke="#294270" stroke-width="2"/>
    </g>
    <g>
      <path d="M420.5,240 L450.5,240 L450.5,270 L420.5,270 L420.5,240 z" fill="#8FC7ED"/>
      <path d="M420.5,240 L450.5,240 L450.5,270 L420.5,270 L420.5,240 z" fill-opacity="0" stroke="#294270" stroke-width="2"/>
    </g>
    <g>
      <path d="M390.5,210 L420.5,210 L420.5,240 L390.5,240 L390.5,210 z" fill="#8FC7ED"/>
      <path d="M390.5,210 L420.5,210 L420.5,240 L390.5,240 L390.5,210 z" fill-opacity="0" stroke="#294270" stroke-width="2"/>
    </g>
    <g>
      <path d="M420.5,210 L450.5,210 L450.5,240 L420.5,240 L420.5,210 z" fill="#8FC7ED"/>
      <path d="M420.5,210 L450.5,210 L450.5,240 L420.5,240 L420.5,210 z" fill-opacity="0" stroke="#294270" stroke-width="2"/>
    </g>
    <g>
      <path d="M465.5,180 L495.5,180 L495.5,210 L465.5,210 L465.5,180 z" fill="#8FC7ED"/>
      <path d="M465.5,180 L495.5,180 L495.5,210 L465.5,210 L465.5,180 z" fill-opacity="0" stroke="#294270" stroke-width="2"/>
    </g>
    <g>
      <path d="M495.5,180 L525.5,180 L525.5,210 L495.5,210 L495.5,180 z" fill="#8FC7ED"/>
      <path d="M495.5,180 L525.5,180 L525.5,210 L495.5,210 L495.5,180 z" fill-opacity="0" stroke="#294270" stroke-width="2"/>
    </g>
    <g>
      <path d="M465.5,240 L495.5,240 L495.5,270 L465.5,270 L465.5,240 z" fill="#8FC7ED"/>
      <path d="M465.5,240 L495.5,240 L495.5,270 L465.5,270 L465.5,240 z" fill-opacity="0" stroke="#294270" stroke-width="2"/>
    </g>
    <g>
      <path d="M495.5,240 L525.5,240 L525.5,270 L495.5,270 L495.5,240 z" fill="#8FC7ED"/>
      <path d="M495.5,240 L525.5,240 L525.5,270 L495.5,270 L495.5,240 z" fill-opacity="0" stroke="#294270" stroke-width="2"/>
    </g>
    <g>
      <path d="M465.5,210 L495.5,210 L495.5,240 L465.5,240 L465.5,210 z" fill="#8FC7ED"/>
      <path d="M465.5,210 L495.5,210 L495.5,240 L465.5,240 L465.5,210 z" fill-opacity="0" stroke="#294270" stroke-width="2"/>
    </g>
    <g>
      <path d="M495.5,210 L525.5,210 L525.5,240 L495.5,240 L495.5,210 z" fill="#8FC7ED"/>
      <path d="M495.5,210 L525.5,210 L525.5,240 L495.5,240 L495.5,210 z" fill-opacity="0" stroke="#294270" stroke-width="2"/>
    </g>
    <g>
      <path d="M540.5,180 L570.5,180 L570.5,210 L540.5,210 L540.5,180 z" fill="#8FC7ED"/>
      <path d="M540.5,180 L570.5,180 L570.5,210 L540.5,210 L540.5,180 z" fill-opacity="0" stroke="#294270" stroke-width="2"/>
    </g>
    <g>
      <path d="M570.5,180 L600.5,180 L600.5,210 L570.5,210 L570.5,180 z" fill="#8FC7ED"/>
      <path d="M570.5,180 L600.5,180 L600.5,210 L570.5,210 L570.5,180 z" fill-opacity="0" stroke="#294270" stroke-width="2"/>
    </g>
    <g>
      <path d="M540.5,240 L570.5,240 L570.5,270 L540.5,270 L540.5,240 z" fill="#8FC7ED"/>
      <path d="M540.5,240 L570.5,240 L570.5,270 L540.5,270 L540.5,240 z" fill-opacity="0" stroke="#294270" stroke-width="2"/>
    </g>
    <g>
      <path d="M570.5,240 L600.5,240 L600.5,270 L570.5,270 L570.5,240 z" fill="#8FC7ED"/>
      <path d="M570.5,240 L600.5,240 L600.5,270 L570.5,270 L570.5,240 z" fill-opacity="0" stroke="#294270" stroke-width="2"/>
    </g>
    <g>
      <path d="M540.5,210 L570.5,210 L570.5,240 L540.5,240 L540.5,210 z" fill="#8FC7ED"/>
      <path d="M540.5,210 L570.5,210 L570.5,240 L540.5,240 L540.5,210 z" fill-opacity="0" stroke="#294270" stroke-width="2"/>
    </g>
    <g>
      <path d="M570.5,210 L600.5,210 L600.5,240 L570.5,240 L570.5,210 z" fill="#8FC7ED"/>
      <path d="M570.5,210 L600.5,210 L600.5,240 L570.5,240 L570.5,210 z" fill-opacity="0" stroke="#294270" stroke-width="2"/>
    </g>
    <g>
      <path d="M615.5,180 L645.5,180 L645.5,210 L615.5,210 L615.5,180 z" fill="#8FC7ED"/>
      <path d="M615.5,180 L645.5,180 L645.5,210 L615.5,210 L615.5,180 z" fill-opacity="0" stroke="#294270" stroke-width="2"/>
    </g>
    <g>
      <path d="M645.5,180 L675.5,180 L675.5,210 L645.5,210 L645.5,180 z" fill="#8FC7ED"/>
      <path d="M645.5,180 L675.5,180 L675.5,210 L645.5,210 L645.5,180 z" fill-opacity="0" stroke="#294270" stroke-width="2"/>
    </g>
    <g>
      <path d="M615.5,240 L645.5,240 L645.5,270 L615.5,270 L615.5,240 z" fill="#8FC7ED"/>
      <path d="M615.5,240 L645.5,240 L645.5,270 L615.5,270 L615.5,240 z" fill-opacity="0" stroke="#294270" stroke-width="2"/>
    </g>
    <g>
      <path d="M645.5,240 L675.5,240 L675.5,270 L645.5,270 L645.5,240 z" fill="#8FC7ED"/>
      <path d="M645.5,240 L675.5,240 L675.5,270 L645.5,270 L645.5,240 z" fill-opacity="0" stroke="#294270" stroke-width="2"/>
    </g>
    <g>
      <path d="M615.5,210 L645.5,210 L645.5,240 L615.5,240 L615.5,210 z" fill="#8FC7ED"/>
      <path d="M615.5,210 L645.5,210 L645.5,240 L615.5,240 L615.5,210 z" fill-opacity="0" stroke="#294270" stroke-width="2"/>
    </g>
    <g>
      <path d="M645.5,210 L675.5,210 L675.5,240 L645.5,240 L645.5,210 z" fill="#8FC7ED"/>
      <path d="M645.5,210 L675.5,210 L675.5,240 L645.5,240 L645.5,210 z" fill-opacity="0" stroke="#294270" stroke-width="2"/>
    </g>
    <g>
      <path d="M690.5,180 L720.5,180 L720.5,210 L690.5,210 L690.5,180 z" fill="#8FC7ED"/>
      <path d="M690.5,180 L720.5,180 L720.5,210 L690.5,210 L690.5,180 z" fill-opacity="0" stroke="#294270" stroke-width="2"/>
    </g>
    <g>
      <path d="M720.5,180 L750.5,180 L750.5,210 L720.5,210 L720.5,180 z" fill="#8FC7ED"/>
      <path d="M720.5,180 L750.5,180 L750.5,210 L720.5,210 L720.5,180 z" fill-opacity="0" stroke="#294270" stroke-width="2"/>
    </g>
    <g>
      <path d="M690.5,240 L720.5,240 L720.5,270 L690.5,270 L690.5,240 z" fill="#8FC7ED"/>
      <path d="M690.5,240 L720.5,240 L720.5,270 L690.5,270 L690.5,240 z" fill-opacity="0" stroke="#294270" stroke-width="2"/>
    </g>
    <g>
      <path d="M720.5,240 L750.5,240 L750.5,270 L720.5,270 L720.5,240 z" fill="#8FC7ED"/>
      <path d="M720.5,240 L750.5,240 L750.5,270 L720.5,270 L720.5,240 z" fill-opacity="0" stroke="#294270" stroke-width="2"/>
    </g>
    <g>
      <path d="M690.5,210 L720.5,210 L720.5,240 L690.5,240 L690.5,210 z" fill="#8FC7ED"/>
      <path d="M690.5,210 L720.5,210 L720.5,240 L690.5,240 L690.5,210 z" fill-opacity="0" stroke="#294270" stroke-width="2"/>
    </g>
    <g>
      <path d="M720.5,210 L750.5,210 L750.5,240 L720.5,240 L720.5,210 z" fill="#8FC7ED"/>
      <path d="M720.5,210 L750.5,210 L750.5,240 L720.5,240 L720.5,210 z" fill-opacity="0" stroke="#294270" stroke-width="2"/>
    </g>
    <text transform="matrix(1, 0, 0, 1, 47.754, 155)">
      <tspan x="-9.642" y="13.5" font-family="Roboto-Bold" font-size="36" fill="#294270">k</tspan>
    </text>
    <text transform="matrix(1, 0, 0, 1, 122.262, 154.5)">
      <tspan x="-4.808" y="13.5" font-family="Roboto-Bold" font-size="36" fill="#294270">l</tspan>
    </text>
    <text transform="matrix(1, 0, 0, 1, 198.105, 154.5)">
      <tspan x="-15.574" y="13.5" font-family="Roboto-Bold" font-size="36" fill="#294270">m</tspan>
    </text>
    <text transform="matrix(1, 0, 0, 1, 272.262, 154.5)">
      <tspan x="-10.16" y="13.5" font-family="Roboto-Bold" font-size="36" fill="#294270">n</tspan>
    </text>
    <text transform="matrix(1, 0, 0, 1, 347.895, 154.5)">
      <tspan x="-10.16" y="13.5" font-family="Roboto-Bold" font-size="36" fill="#294270">o</tspan>
    </text>
    <text transform="matrix(1, 0, 0, 1, 419.012, 154.5)">
      <tspan x="-10.16" y="13.5" font-family="Roboto-Bold" font-size="36" fill="#294270">p</tspan>
    </text>
    <text transform="matrix(1, 0, 0, 1, 497.262, 154.5)">
      <tspan x="-10.16" y="13.5" font-family="Roboto-Bold" font-size="36" fill="#294270">q</tspan>
    </text>
    <text transform="matrix(1, 0, 0, 1, 572.262, 154.5)">
      <tspan x="-6.302" y="13.5" font-family="Roboto-Bold" font-size="36" fill="#294270">r</tspan>
    </text>
    <text transform="matrix(1, 0, 0, 1, 647.386, 154.5)">
      <tspan x="-9.281" y="13.5" font-family="Roboto-Bold" font-size="36" fill="#294270">s</tspan>
    </text>
    <text transform="matrix(1, 0, 0, 1, 722.351, 154.5)">
      <tspan x="-6.284" y="13.5" font-family="Roboto-Bold" font-size="36" fill="#294270">t</tspan>
    </text>
    <path d="M30.254,204.5 C24.871,204.5 20.508,200.023 20.508,194.5 C20.508,188.977 24.871,184.5 30.254,184.5 C35.637,184.5 40,188.977 40,194.5 C40,200.023 35.637,204.5 30.254,204.5 z" fill="#294270"/>
    <path d="M435,204.5 C429.617,204.5 425.254,200.023 425.254,194.5 C425.254,188.977 429.617,184.5 435,184.5 C440.383,184.5 444.746,188.977 444.746,194.5 C444.746,200.023 440.383,204.5 435,204.5 z" fill="#294270"/>
    <path d="M404.746,204.5 C399.363,204.5 395,200.023 395,194.5 C395,188.977 399.363,184.5 404.746,184.5 C410.129,184.5 414.492,188.977 414.492,194.5 C414.492,200.023 410.129,204.5 404.746,204.5 z" fill="#294270"/>
    <path d="M404.746,234.5 C399.363,234.5 395,230.023 395,224.5 C395,218.977 399.363,214.5 404.746,214.5 C410.129,214.5 414.492,218.977 414.492,224.5 C414.492,230.023 410.129,234.5 404.746,234.5 z" fill="#294270"/>
    <path d="M360,234.5 C354.617,234.5 350.254,230.023 350.254,224.5 C350.254,218.977 354.617,214.5 360,214.5 C365.383,214.5 369.746,218.977 369.746,224.5 C369.746,230.023 365.383,234.5 360,234.5 z" fill="#294270"/>
    <path d="M330,204.5 C324.617,204.5 320.254,200.023 320.254,194.5 C320.254,188.977 324.617,184.5 330,184.5 C335.383,184.5 339.746,188.977 339.746,194.5 C339.746,200.023 335.383,204.5 330,204.5 z" fill="#294270"/>
    <path d="M285,234.5 C279.617,234.5 275.254,230.023 275.254,224.5 C275.254,218.977 279.617,214.5 285,214.5 C290.383,214.5 294.746,218.977 294.746,224.5 C294.746,230.023 290.383,234.5 285,234.5 z" fill="#294270"/>
    <path d="M285,204.5 C279.617,204.5 275.254,200.023 275.254,194.5 C275.254,188.977 279.617,184.5 285,184.5 C290.383,184.5 294.746,188.977 294.746,194.5 C294.746,200.023 290.383,204.5 285,204.5 z" fill="#294270"/>
    <path d="M255,204.5 C249.617,204.5 245.254,200.023 245.254,194.5 C245.254,188.977 249.617,184.5 255,184.5 C260.383,184.5 264.746,188.977 264.746,194.5 C264.746,200.023 260.383,204.5 255,204.5 z" fill="#294270"/>
    <path d="M210,204.5 C204.617,204.5 200.254,200.023 200.254,194.5 C200.254,188.977 204.617,184.5 210,184.5 C215.383,184.5 219.746,188.977 219.746,194.5 C219.746,200.023 215.383,204.5 210,204.5 z" fill="#294270"/>
    <path d="M180,204.5 C174.617,204.5 170.254,200.023 170.254,194.5 C170.254,188.977 174.617,184.5 180,184.5 C185.383,184.5 189.746,188.977 189.746,194.5 C189.746,200.023 185.383,204.5 180,204.5 z" fill="#294270"/>
    <path d="M105,234.5 C99.617,234.5 95.254,230.023 95.254,224.5 C95.254,218.977 99.617,214.5 105,214.5 C110.383,214.5 114.746,218.977 114.746,224.5 C114.746,230.023 110.383,234.5 105,234.5 z" fill="#294270"/>
    <path d="M105,204.5 C99.617,204.5 95.254,200.023 95.254,194.5 C95.254,188.977 99.617,184.5 105,184.5 C110.383,184.5 114.746,188.977 114.746,194.5 C114.746,200.023 110.383,204.5 105,204.5 z" fill="#294270"/>
    <path d="M555,234.5 C549.617,234.5 545.254,230.023 545.254,224.5 C545.254,218.977 549.617,214.5 555,214.5 C560.383,214.5 564.746,218.977 564.746,224.5 C564.746,230.023 560.383,234.5 555,234.5 z" fill="#294270"/>
    <path d="M555,204.5 C549.617,204.5 545.254,200.023 545.254,194.5 C545.254,188.977 549.617,184.5 555,184.5 C560.383,184.5 564.746,188.977 564.746,194.5 C564.746,200.023 560.383,204.5 555,204.5 z" fill="#294270"/>
    <path d="M510,204.5 C504.617,204.5 500.254,200.023 500.254,194.5 C500.254,188.977 504.617,184.5 510,184.5 C515.383,184.5 519.746,188.977 519.746,194.5 C519.746,200.023 515.383,204.5 510,204.5 z" fill="#294270"/>
    <path d="M480,204.5 C474.617,204.5 470.254,200.023 470.254,194.5 C470.254,188.977 474.617,184.5 480,184.5 C485.383,184.5 489.746,188.977 489.746,194.5 C489.746,200.023 485.383,204.5 480,204.5 z" fill="#294270"/>
    <path d="M510,234.5 C504.617,234.5 500.254,230.023 500.254,224.5 C500.254,218.977 504.617,214.5 510,214.5 C515.383,214.5 519.746,218.977 519.746,224.5 C519.746,230.023 515.383,234.5 510,234.5 z" fill="#294270"/>
    <path d="M480,234.5 C474.617,234.5 470.254,230.023 470.254,224.5 C470.254,218.977 474.617,214.5 480,214.5 C485.383,214.5 489.746,218.977 489.746,224.5 C489.746,230.023 485.383,234.5 480,234.5 z" fill="#294270"/>
    <path d="M734.955,234.5 C729.572,234.5 725.209,230.023 725.209,224.5 C725.209,218.977 729.572,214.5 734.955,214.5 C740.338,214.5 744.701,218.977 744.701,224.5 C744.701,230.023 740.338,234.5 734.955,234.5 z" fill="#294270"/>
    <path d="M705,234.5 C699.617,234.5 695.254,230.023 695.254,224.5 C695.254,218.977 699.617,214.5 705,214.5 C710.383,214.5 714.746,218.977 714.746,224.5 C714.746,230.023 710.383,234.5 705,234.5 z" fill="#294270"/>
    <path d="M660,204.5 C654.617,204.5 650.254,200.023 650.254,194.5 C650.254,188.977 654.617,184.5 660,184.5 C665.383,184.5 669.746,188.977 669.746,194.5 C669.746,200.023 665.383,204.5 660,204.5 z" fill="#294270"/>
    <path d="M630,234.5 C624.617,234.5 620.254,230.023 620.254,224.5 C620.254,218.977 624.617,214.5 630,214.5 C635.383,214.5 639.746,218.977 639.746,224.5 C639.746,230.023 635.383,234.5 630,234.5 z" fill="#294270"/>
    <path d="M585,234.5 C579.617,234.5 575.254,230.023 575.254,224.5 C575.254,218.977 579.617,214.5 585,214.5 C590.383,214.5 594.746,218.977 594.746,224.5 C594.746,230.023 590.383,234.5 585,234.5 z" fill="#294270"/>
    <path d="M734.955,204.5 C729.572,204.5 725.209,200.023 725.209,194.5 C725.209,188.977 729.572,184.5 734.955,184.5 C740.338,184.5 744.701,188.977 744.701,194.5 C744.701,200.023 740.338,204.5 734.955,204.5 z" fill="#294270"/>
    <path d="M630,264.5 C624.617,264.5 620.254,260.023 620.254,254.5 C620.254,248.977 624.617,244.5 630,244.5 C635.383,244.5 639.746,248.977 639.746,254.5 C639.746,260.023 635.383,264.5 630,264.5 z" fill="#294270"/>
    <path d="M555,264.5 C549.617,264.5 545.254,260.023 545.254,254.5 C545.254,248.977 549.617,244.5 555,244.5 C560.383,244.5 564.746,248.977 564.746,254.5 C564.746,260.023 560.383,264.5 555,264.5 z" fill="#294270"/>
    <path d="M480,264.5 C474.617,264.5 470.254,260.023 470.254,254.5 C470.254,248.977 474.617,244.5 480,244.5 C485.383,244.5 489.746,248.977 489.746,254.5 C489.746,260.023 485.383,264.5 480,264.5 z" fill="#294270"/>
    <path d="M404.746,264.5 C399.363,264.5 395,260.023 395,254.5 C395,248.977 399.363,244.5 404.746,244.5 C410.129,244.5 414.492,248.977 414.492,254.5 C414.492,260.023 410.129,264.5 404.746,264.5 z" fill="#294270"/>
    <path d="M330,264.5 C324.617,264.5 320.254,260.023 320.254,254.5 C320.254,248.977 324.617,244.5 330,244.5 C335.383,244.5 339.746,248.977 339.746,254.5 C339.746,260.023 335.383,264.5 330,264.5 z" fill="#294270"/>
    <path d="M255,264.5 C249.617,264.5 245.254,260.023 245.254,254.5 C245.254,248.977 249.617,244.5 255,244.5 C260.383,244.5 264.746,248.977 264.746,254.5 C264.746,260.023 260.383,264.5 255,264.5 z" fill="#294270"/>
    <path d="M180,264.5 C174.617,264.5 170.254,260.023 170.254,254.5 C170.254,248.977 174.617,244.5 180,244.5 C185.383,244.5 189.746,248.977 189.746,254.5 C189.746,260.023 185.383,264.5 180,264.5 z" fill="#294270"/>
    <path d="M105,264.5 C99.617,264.5 95.254,260.023 95.254,254.5 C95.254,248.977 99.617,244.5 105,244.5 C110.383,244.5 114.746,248.977 114.746,254.5 C114.746,260.023 110.383,264.5 105,264.5 z" fill="#294270"/>
    <path d="M30,264.5 C24.617,264.5 20.254,260.023 20.254,254.5 C20.254,248.977 24.617,244.5 30,244.5 C35.383,244.5 39.746,248.977 39.746,254.5 C39.746,260.023 35.383,264.5 30,264.5 z" fill="#294270"/>
    <path d="M705,264.5 C699.617,264.5 695.254,260.023 695.254,254.5 C695.254,248.977 699.617,244.5 705,244.5 C710.383,244.5 714.746,248.977 714.746,254.5 C714.746,260.023 710.383,264.5 705,264.5 z" fill="#294270"/>
    <g>
      <path d="M15.5,314.5 L45.5,314.5 L45.5,344.5 L15.5,344.5 L15.5,314.5 z" fill="#8FC7ED"/>
      <path d="M15.5,314.5 L45.5,314.5 L45.5,344.5 L15.5,344.5 L15.5,314.5 z" fill-opacity="0" stroke="#294270" stroke-width="2"/>
    </g>
    <g>
      <path d="M45.5,314.5 L75.5,314.5 L75.5,344.5 L45.5,344.5 L45.5,314.5 z" fill="#8FC7ED"/>
      <path d="M45.5,314.5 L75.5,314.5 L75.5,344.5 L45.5,344.5 L45.5,314.5 z" fill-opacity="0" stroke="#294270" stroke-width="2"/>
    </g>
    <g>
      <path d="M15.5,374.5 L45.5,374.5 L45.5,404.5 L15.5,404.5 L15.5,374.5 z" fill="#8FC7ED"/>
      <path d="M15.5,374.5 L45.5,374.5 L45.5,404.5 L15.5,404.5 L15.5,374.5 z" fill-opacity="0" stroke="#294270" stroke-width="2"/>
    </g>
    <g>
      <path d="M45.5,374.5 L75.5,374.5 L75.5,404.5 L45.5,404.5 L45.5,374.5 z" fill="#8FC7ED"/>
      <path d="M45.5,374.5 L75.5,374.5 L75.5,404.5 L45.5,404.5 L45.5,374.5 z" fill-opacity="0" stroke="#294270" stroke-width="2"/>
    </g>
    <g>
      <path d="M15.5,344.5 L45.5,344.5 L45.5,374.5 L15.5,374.5 L15.5,344.5 z" fill="#8FC7ED"/>
      <path d="M15.5,344.5 L45.5,344.5 L45.5,374.5 L15.5,374.5 L15.5,344.5 z" fill-opacity="0" stroke="#294270" stroke-width="2"/>
    </g>
    <g>
      <path d="M45.5,344.5 L75.5,344.5 L75.5,374.5 L45.5,374.5 L45.5,344.5 z" fill="#8FC7ED"/>
      <path d="M45.5,344.5 L75.5,344.5 L75.5,374.5 L45.5,374.5 L45.5,344.5 z" fill-opacity="0" stroke="#294270" stroke-width="2"/>
    </g>
    <g>
      <path d="M90.5,314.5 L120.5,314.5 L120.5,344.5 L90.5,344.5 L90.5,314.5 z" fill="#8FC7ED"/>
      <path d="M90.5,314.5 L120.5,314.5 L120.5,344.5 L90.5,344.5 L90.5,314.5 z" fill-opacity="0" stroke="#294270" stroke-width="2"/>
    </g>
    <g>
      <path d="M120.5,314.5 L150.5,314.5 L150.5,344.5 L120.5,344.5 L120.5,314.5 z" fill="#8FC7ED"/>
      <path d="M120.5,314.5 L150.5,314.5 L150.5,344.5 L120.5,344.5 L120.5,314.5 z" fill-opacity="0" stroke="#294270" stroke-width="2"/>
    </g>
    <g>
      <path d="M90.5,374.5 L120.5,374.5 L120.5,404.5 L90.5,404.5 L90.5,374.5 z" fill="#8FC7ED"/>
      <path d="M90.5,374.5 L120.5,374.5 L120.5,404.5 L90.5,404.5 L90.5,374.5 z" fill-opacity="0" stroke="#294270" stroke-width="2"/>
    </g>
    <g>
      <path d="M120.5,374.5 L150.5,374.5 L150.5,404.5 L120.5,404.5 L120.5,374.5 z" fill="#8FC7ED"/>
      <path d="M120.5,374.5 L150.5,374.5 L150.5,404.5 L120.5,404.5 L120.5,374.5 z" fill-opacity="0" stroke="#294270" stroke-width="2"/>
    </g>
    <g>
      <path d="M90.5,344.5 L120.5,344.5 L120.5,374.5 L90.5,374.5 L90.5,344.5 z" fill="#8FC7ED"/>
      <path d="M90.5,344.5 L120.5,344.5 L120.5,374.5 L90.5,374.5 L90.5,344.5 z" fill-opacity="0" stroke="#294270" stroke-width="2"/>
    </g>
    <g>
      <path d="M120.5,344.5 L150.5,344.5 L150.5,374.5 L120.5,374.5 L120.5,344.5 z" fill="#8FC7ED"/>
      <path d="M120.5,344.5 L150.5,344.5 L150.5,374.5 L120.5,374.5 L120.5,344.5 z" fill-opacity="0" stroke="#294270" stroke-width="2"/>
    </g>
    <g>
      <path d="M165.5,314.5 L195.5,314.5 L195.5,344.5 L165.5,344.5 L165.5,314.5 z" fill="#8FC7ED"/>
      <path d="M165.5,314.5 L195.5,314.5 L195.5,344.5 L165.5,344.5 L165.5,314.5 z" fill-opacity="0" stroke="#294270" stroke-width="2"/>
    </g>
    <g>
      <path d="M195.5,314.5 L225.5,314.5 L225.5,344.5 L195.5,344.5 L195.5,314.5 z" fill="#8FC7ED"/>
      <path d="M195.5,314.5 L225.5,314.5 L225.5,344.5 L195.5,344.5 L195.5,314.5 z" fill-opacity="0" stroke="#294270" stroke-width="2"/>
    </g>
    <g>
      <path d="M165.5,374.5 L195.5,374.5 L195.5,404.5 L165.5,404.5 L165.5,374.5 z" fill="#8FC7ED"/>
      <path d="M165.5,374.5 L195.5,374.5 L195.5,404.5 L165.5,404.5 L165.5,374.5 z" fill-opacity="0" stroke="#294270" stroke-width="2"/>
    </g>
    <g>
      <path d="M195.5,374.5 L225.5,374.5 L225.5,404.5 L195.5,404.5 L195.5,374.5 z" fill="#8FC7ED"/>
      <path d="M195.5,374.5 L225.5,374.5 L225.5,404.5 L195.5,404.5 L195.5,374.5 z" fill-opacity="0" stroke="#294270" stroke-width="2"/>
    </g>
    <g>
      <path d="M165.5,344.5 L195.5,344.5 L195.5,374.5 L165.5,374.5 L165.5,344.5 z" fill="#8FC7ED"/>
      <path d="M165.5,344.5 L195.5,344.5 L195.5,374.5 L165.5,374.5 L165.5,344.5 z" fill-opacity="0" stroke="#294270" stroke-width="2"/>
    </g>
    <g>
      <path d="M195.5,344.5 L225.5,344.5 L225.5,374.5 L195.5,374.5 L195.5,344.5 z" fill="#8FC7ED"/>
      <path d="M195.5,344.5 L225.5,344.5 L225.5,374.5 L195.5,374.5 L195.5,344.5 z" fill-opacity="0" stroke="#294270" stroke-width="2"/>
    </g>
    <g>
      <path d="M240.5,314.5 L270.5,314.5 L270.5,344.5 L240.5,344.5 L240.5,314.5 z" fill="#8FC7ED"/>
      <path d="M240.5,314.5 L270.5,314.5 L270.5,344.5 L240.5,344.5 L240.5,314.5 z" fill-opacity="0" stroke="#294270" stroke-width="2"/>
    </g>
    <g>
      <path d="M270.5,314.5 L300.5,314.5 L300.5,344.5 L270.5,344.5 L270.5,314.5 z" fill="#8FC7ED"/>
      <path d="M270.5,314.5 L300.5,314.5 L300.5,344.5 L270.5,344.5 L270.5,314.5 z" fill-opacity="0" stroke="#294270" stroke-width="2"/>
    </g>
    <g>
      <path d="M240.5,374.5 L270.5,374.5 L270.5,404.5 L240.5,404.5 L240.5,374.5 z" fill="#8FC7ED"/>
      <path d="M240.5,374.5 L270.5,374.5 L270.5,404.5 L240.5,404.5 L240.5,374.5 z" fill-opacity="0" stroke="#294270" stroke-width="2"/>
    </g>
    <g>
      <path d="M270.5,374.5 L300.5,374.5 L300.5,404.5 L270.5,404.5 L270.5,374.5 z" fill="#8FC7ED"/>
      <path d="M270.5,374.5 L300.5,374.5 L300.5,404.5 L270.5,404.5 L270.5,374.5 z" fill-opacity="0" stroke="#294270" stroke-width="2"/>
    </g>
    <g>
      <path d="M240.5,344.5 L270.5,344.5 L270.5,374.5 L240.5,374.5 L240.5,344.5 z" fill="#8FC7ED"/>
      <path d="M240.5,344.5 L270.5,344.5 L270.5,374.5 L240.5,374.5 L240.5,344.5 z" fill-opacity="0" stroke="#294270" stroke-width="2"/>
    </g>
    <g>
      <path d="M270.5,344.5 L300.5,344.5 L300.5,374.5 L270.5,374.5 L270.5,344.5 z" fill="#8FC7ED"/>
      <path d="M270.5,344.5 L300.5,344.5 L300.5,374.5 L270.5,374.5 L270.5,344.5 z" fill-opacity="0" stroke="#294270" stroke-width="2"/>
    </g>
    <g>
      <path d="M315.5,314.5 L345.5,314.5 L345.5,344.5 L315.5,344.5 L315.5,314.5 z" fill="#8FC7ED"/>
      <path d="M315.5,314.5 L345.5,314.5 L345.5,344.5 L315.5,344.5 L315.5,314.5 z" fill-opacity="0" stroke="#294270" stroke-width="2"/>
    </g>
    <g>
      <path d="M345.5,314.5 L375.5,314.5 L375.5,344.5 L345.5,344.5 L345.5,314.5 z" fill="#8FC7ED"/>
      <path d="M345.5,314.5 L375.5,314.5 L375.5,344.5 L345.5,344.5 L345.5,314.5 z" fill-opacity="0" stroke="#294270" stroke-width="2"/>
    </g>
    <g>
      <path d="M315.5,374.5 L345.5,374.5 L345.5,404.5 L315.5,404.5 L315.5,374.5 z" fill="#8FC7ED"/>
      <path d="M315.5,374.5 L345.5,374.5 L345.5,404.5 L315.5,404.5 L315.5,374.5 z" fill-opacity="0" stroke="#294270" stroke-width="2"/>
    </g>
    <g>
      <path d="M345.5,374.5 L375.5,374.5 L375.5,404.5 L345.5,404.5 L345.5,374.5 z" fill="#8FC7ED"/>
      <path d="M345.5,374.5 L375.5,374.5 L375.5,404.5 L345.5,404.5 L345.5,374.5 z" fill-opacity="0" stroke="#294270" stroke-width="2"/>
    </g>
    <g>
      <path d="M315.5,344.5 L345.5,344.5 L345.5,374.5 L315.5,374.5 L315.5,344.5 z" fill="#8FC7ED"/>
      <path d="M315.5,344.5 L345.5,344.5 L345.5,374.5 L315.5,374.5 L315.5,344.5 z" fill-opacity="0" stroke="#294270" stroke-width="2"/>
    </g>
    <g>
      <path d="M345.5,344.5 L375.5,344.5 L375.5,374.5 L345.5,374.5 L345.5,344.5 z" fill="#8FC7ED"/>
      <path d="M345.5,344.5 L375.5,344.5 L375.5,374.5 L345.5,374.5 L345.5,344.5 z" fill-opacity="0" stroke="#294270" stroke-width="2"/>
    </g>
    <g>
      <path d="M690.5,314.5 L720.5,314.5 L720.5,344.5 L690.5,344.5 L690.5,314.5 z" fill="#8FC7ED"/>
      <path d="M690.5,314.5 L720.5,314.5 L720.5,344.5 L690.5,344.5 L690.5,314.5 z" fill-opacity="0" stroke="#294270" stroke-width="2"/>
    </g>
    <g>
      <path d="M720.5,314.5 L750.5,314.5 L750.5,344.5 L720.5,344.5 L720.5,314.5 z" fill="#8FC7ED"/>
      <path d="M720.5,314.5 L750.5,314.5 L750.5,344.5 L720.5,344.5 L720.5,314.5 z" fill-opacity="0" stroke="#294270" stroke-width="2"/>
    </g>
    <g>
      <path d="M690.5,374.5 L720.5,374.5 L720.5,404.5 L690.5,404.5 L690.5,374.5 z" fill="#8FC7ED"/>
      <path d="M690.5,374.5 L720.5,374.5 L720.5,404.5 L690.5,404.5 L690.5,374.5 z" fill-opacity="0" stroke="#294270" stroke-width="2"/>
    </g>
    <g>
      <path d="M720.5,374.5 L750.5,374.5 L750.5,404.5 L720.5,404.5 L720.5,374.5 z" fill="#8FC7ED"/>
      <path d="M720.5,374.5 L750.5,374.5 L750.5,404.5 L720.5,404.5 L720.5,374.5 z" fill-opacity="0" stroke="#294270" stroke-width="2"/>
    </g>
    <g>
      <path d="M690.5,344.5 L720.5,344.5 L720.5,374.5 L690.5,374.5 L690.5,344.5 z" fill="#8FC7ED"/>
      <path d="M690.5,344.5 L720.5,344.5 L720.5,374.5 L690.5,374.5 L690.5,344.5 z" fill-opacity="0" stroke="#294270" stroke-width="2"/>
    </g>
    <g>
      <path d="M720.5,344.5 L750.5,344.5 L750.5,374.5 L720.5,374.5 L720.5,344.5 z" fill="#8FC7ED"/>
      <path d="M720.5,344.5 L750.5,344.5 L750.5,374.5 L720.5,374.5 L720.5,344.5 z" fill-opacity="0" stroke="#294270" stroke-width="2"/>
    </g>
    <text transform="matrix(1, 0, 0, 1, 47.754, 289.5)">
      <tspan x="-10.16" y="13.5" font-family="Roboto-Bold" font-size="36" fill="#294270">u</tspan>
    </text>
    <text transform="matrix(1, 0, 0, 1, 122.262, 289)">
      <tspan x="-9.193" y="13.5" font-family="Roboto-Bold" font-size="36" fill="#294270">v</tspan>
    </text>
    <text transform="matrix(1, 0, 0, 1, 198.105, 289)">
      <tspan x="-9.193" y="13.5" font-family="Roboto-Bold" font-size="36" fill="#294270">x</tspan>
    </text>
    <text transform="matrix(1, 0, 0, 1, 272.262, 289)">
      <tspan x="-9.193" y="13.5" font-family="Roboto-Bold" font-size="36" fill="#294270">y</tspan>
    </text>
    <text transform="matrix(1, 0, 0, 1, 347.895, 289)">
      <tspan x="-9.193" y="13.5" font-family="Roboto-Bold" font-size="36" fill="#294270">z</tspan>
    </text>
    <text transform="matrix(1, 0, 0, 1, 722.351, 289)">
      <tspan x="-13.245" y="13.5" font-family="Roboto-Bold" font-size="36" fill="#294270">w</tspan>
    </text>
    <path d="M30.254,339 C24.871,339 20.508,334.523 20.508,329 C20.508,323.477 24.871,319 30.254,319 C35.637,319 40,323.477 40,329 C40,334.523 35.637,339 30.254,339 z" fill="#294270"/>
    <path d="M360,369 C354.617,369 350.254,364.523 350.254,359 C350.254,353.477 354.617,349 360,349 C365.383,349 369.746,353.477 369.746,359 C369.746,364.523 365.383,369 360,369 z" fill="#294270"/>
    <path d="M330,339 C324.617,339 320.254,334.523 320.254,329 C320.254,323.477 324.617,319 330,319 C335.383,319 339.746,323.477 339.746,329 C339.746,334.523 335.383,339 330,339 z" fill="#294270"/>
    <path d="M285,369 C279.617,369 275.254,364.523 275.254,359 C275.254,353.477 279.617,349 285,349 C290.383,349 294.746,353.477 294.746,359 C294.746,364.523 290.383,369 285,369 z" fill="#294270"/>
    <path d="M285,339 C279.617,339 275.254,334.523 275.254,329 C275.254,323.477 279.617,319 285,319 C290.383,319 294.746,323.477 294.746,329 C294.746,334.523 290.383,339 285,339 z" fill="#294270"/>
    <path d="M255,339 C249.617,339 245.254,334.523 245.254,329 C245.254,323.477 249.617,319 255,319 C260.383,319 264.746,323.477 264.746,329 C264.746,334.523 260.383,339 255,339 z" fill="#294270"/>
    <path d="M210,339 C204.617,339 200.254,334.523 200.254,329 C200.254,323.477 204.617,319 210,319 C215.383,319 219.746,323.477 219.746,329 C219.746,334.523 215.383,339 210,339 z" fill="#294270"/>
    <path d="M180,339 C174.617,339 170.254,334.523 170.254,329 C170.254,323.477 174.617,319 180,319 C185.383,319 189.746,323.477 189.746,329 C189.746,334.523 185.383,339 180,339 z" fill="#294270"/>
    <path d="M105,369 C99.617,369 95.254,364.523 95.254,359 C95.254,353.477 99.617,349 105,349 C110.383,349 114.746,353.477 114.746,359 C114.746,364.523 110.383,369 105,369 z" fill="#294270"/>
    <path d="M105,339 C99.617,339 95.254,334.523 95.254,329 C95.254,323.477 99.617,319 105,319 C110.383,319 114.746,323.477 114.746,329 C114.746,334.523 110.383,339 105,339 z" fill="#294270"/>
    <path d="M734.955,369 C729.572,369 725.209,364.523 725.209,359 C725.209,353.477 729.572,349 734.955,349 C740.338,349 744.701,353.477 744.701,359 C744.701,364.523 740.338,369 734.955,369 z" fill="#294270"/>
    <path d="M705,369 C699.617,369 695.254,364.523 695.254,359 C695.254,353.477 699.617,349 705,349 C710.383,349 714.746,353.477 714.746,359 C714.746,364.523 710.383,369 705,369 z" fill="#294270"/>
    <path d="M734.955,339 C729.572,339 725.209,334.523 725.209,329 C725.209,323.477 729.572,319 734.955,319 C740.338,319 744.701,323.477 744.701,329 C744.701,334.523 740.338,339 734.955,339 z" fill="#294270"/>
    <path d="M330,399 C324.617,399 320.254,394.523 320.254,389 C320.254,383.477 324.617,379 330,379 C335.383,379 339.746,383.477 339.746,389 C339.746,394.523 335.383,399 330,399 z" fill="#294270"/>
    <path d="M255,399 C249.617,399 245.254,394.523 245.254,389 C245.254,383.477 249.617,379 255,379 C260.383,379 264.746,383.477 264.746,389 C264.746,394.523 260.383,399 255,399 z" fill="#294270"/>
    <path d="M180,399 C174.617,399 170.254,394.523 170.254,389 C170.254,383.477 174.617,379 180,379 C185.383,379 189.746,383.477 189.746,389 C189.746,394.523 185.383,399 180,399 z" fill="#294270"/>
    <path d="M105,399 C99.617,399 95.254,394.523 95.254,389 C95.254,383.477 99.617,379 105,379 C110.383,379 114.746,383.477 114.746,389 C114.746,394.523 110.383,399 105,399 z" fill="#294270"/>
    <path d="M30,399 C24.617,399 20.254,394.523 20.254,389 C20.254,383.477 24.617,379 30,379 C35.383,379 39.746,383.477 39.746,389 C39.746,394.523 35.383,399 30,399 z" fill="#294270"/>
    <path d="M705,399 C699.617,399 695.254,394.523 695.254,389 C695.254,383.477 699.617,379 705,379 C710.383,379 714.746,383.477 714.746,389 C714.746,394.523 710.383,399 705,399 z" fill="#294270"/>
    <path d="M734.955,399 C729.572,399 725.209,394.523 725.209,389 C725.209,383.477 729.572,379 734.955,379 C740.338,379 744.701,383.477 744.701,389 C744.701,394.523 740.338,399 734.955,399 z" fill="#294270"/>
    <path d="M360,399 C354.617,399 350.254,394.523 350.254,389 C350.254,383.477 354.617,379 360,379 C365.383,379 369.746,383.477 369.746,389 C369.746,394.523 365.383,399 360,399 z" fill="#294270"/>
    <path d="M285,399 C279.617,399 275.254,394.523 275.254,389 C275.254,383.477 279.617,379 285,379 C290.383,379 294.746,383.477 294.746,389 C294.746,394.523 290.383,399 285,399 z" fill="#294270"/>
    <path d="M210,399 C204.617,399 200.254,394.523 200.254,389 C200.254,383.477 204.617,379 210,379 C215.383,379 219.746,383.477 219.746,389 C219.746,394.523 215.383,399 210,399 z" fill="#294270"/>
    <path d="M135,399 C129.617,399 125.254,394.523 125.254,389 C125.254,383.477 129.617,379 135,379 C140.383,379 144.746,383.477 144.746,389 C144.746,394.523 140.383,399 135,399 z" fill="#294270"/>
    <path d="M60,399 C54.617,399 50.254,394.523 50.254,389 C50.254,383.477 54.617,379 60,379 C65.383,379 69.746,383.477 69.746,389 C69.746,394.523 65.383,399 60,399 z" fill="#294270"/>
  </g>
</svg>
