<?xml version="1.0" encoding="UTF-8"?>
<!DOCTYPE svg PUBLIC "-//W3C//DTD SVG 1.1//EN" "http://www.w3.org/Graphics/SVG/1.1/DTD/svg11.dtd">
<svg version="1.1" xmlns="http://www.w3.org/2000/svg" xmlns:xlink="http://www.w3.org/1999/xlink" x="0" y="0" width="300" height="150" viewBox="0, 0, 300, 150">
  <g id="Background">
    <rect x="0" y="0" width="300" height="150" fill="#000000" fill-opacity="0"/>
  </g>
  <g id="Layer_1">
    <g>
      <path d="M45.5,45 L75.5,45 L75.5,75 L45.5,75 L45.5,45 z" fill="#8FC7ED"/>
      <path d="M45.5,45 L75.5,45 L75.5,75 L45.5,75 L45.5,45 z" fill-opacity="0" stroke="#294270" stroke-width="2"/>
    </g>
    <g>
      <path d="M75.5,45 L105.5,45 L105.5,75 L75.5,75 L75.5,45 z" fill="#8FC7ED"/>
      <path d="M75.5,45 L105.5,45 L105.5,75 L75.5,75 L75.5,45 z" fill-opacity="0" stroke="#294270" stroke-width="2"/>
    </g>
    <g>
      <path d="M45.5,105 L75.5,105 L75.5,135 L45.5,135 L45.5,105 z" fill="#8FC7ED"/>
      <path d="M45.5,105 L75.5,105 L75.5,135 L45.5,135 L45.5,105 z" fill-opacity="0" stroke="#294270" stroke-width="2"/>
    </g>
    <g>
      <path d="M75.5,105 L105.5,105 L105.5,135 L75.5,135 L75.5,105 z" fill="#8FC7ED"/>
      <path d="M75.5,105 L105.5,105 L105.5,135 L75.5,135 L75.5,105 z" fill-opacity="0" stroke="#294270" stroke-width="2"/>
    </g>
    <g>
      <path d="M45.5,75 L75.5,75 L75.5,105 L45.5,105 L45.5,75 z" fill="#8FC7ED"/>
      <path d="M45.5,75 L75.5,75 L75.5,105 L45.5,105 L45.5,75 z" fill-opacity="0" stroke="#294270" stroke-width="2"/>
    </g>
    <g>
      <path d="M75.5,75 L105.5,75 L105.5,105 L75.5,105 L75.5,75 z" fill="#8FC7ED"/>
      <path d="M75.5,75 L105.5,75 L105.5,105 L75.5,105 L75.5,75 z" fill-opacity="0" stroke="#294270" stroke-width="2"/>
    </g>
    <g>
      <path d="M195.5,45 L225.5,45 L225.5,75 L195.5,75 L195.5,45 z" fill="#8FC7ED"/>
      <path d="M195.5,45 L225.5,45 L225.5,75 L195.5,75 L195.5,45 z" fill-opacity="0" stroke="#294270" stroke-width="2"/>
    </g>
    <g>
      <path d="M225.5,45 L255.5,45 L255.5,75 L225.5,75 L225.5,45 z" fill="#8FC7ED"/>
      <path d="M225.5,45 L255.5,45 L255.5,75 L225.5,75 L225.5,45 z" fill-opacity="0" stroke="#294270" stroke-width="2"/>
    </g>
    <g>
      <path d="M195.5,105 L225.5,105 L225.5,135 L195.5,135 L195.5,105 z" fill="#8FC7ED"/>
      <path d="M195.5,105 L225.5,105 L225.5,135 L195.5,135 L195.5,105 z" fill-opacity="0" stroke="#294270" stroke-width="2"/>
    </g>
    <g>
      <path d="M225.5,105 L255.5,105 L255.5,135 L225.5,135 L225.5,105 z" fill="#8FC7ED"/>
      <path d="M225.5,105 L255.5,105 L255.5,135 L225.5,135 L225.5,105 z" fill-opacity="0" stroke="#294270" stroke-width="2"/>
    </g>
    <g>
      <path d="M195.5,75 L225.5,75 L225.5,105 L195.5,105 L195.5,75 z" fill="#8FC7ED"/>
      <path d="M195.5,75 L225.5,75 L225.5,105 L195.5,105 L195.5,75 z" fill-opacity="0" stroke="#294270" stroke-width="2"/>
    </g>
    <g>
      <path d="M225.5,75 L255.5,75 L255.5,105 L225.5,105 L225.5,75 z" fill="#8FC7ED"/>
      <path d="M225.5,75 L255.5,75 L255.5,105 L225.5,105 L225.5,75 z" fill-opacity="0" stroke="#294270" stroke-width="2"/>
    </g>
    <path d="M90,129.5 C84.617,129.5 80.254,125.023 80.254,119.5 C80.254,113.977 84.617,109.5 90,109.5 C95.383,109.5 99.746,113.977 99.746,119.5 C99.746,125.023 95.383,129.5 90,129.5 z" fill="#294270"/>
    <path d="M240,99.5 C234.617,99.5 230.254,95.023 230.254,89.5 C230.254,83.977 234.617,79.5 240,79.5 C245.383,79.5 249.746,83.977 249.746,89.5 C249.746,95.023 245.383,99.5 240,99.5 z" fill="#294270"/>
    <path d="M240,69.5 C234.617,69.5 230.254,65.023 230.254,59.5 C230.254,53.977 234.617,49.5 240,49.5 C245.383,49.5 249.746,53.977 249.746,59.5 C249.746,65.023 245.383,69.5 240,69.5 z" fill="#294270"/>
    <text transform="matrix(1, 0, 0, 1, 74.712, 20)">
      <tspan x="-54.712" y="13.5" font-family="Roboto-Bold" font-size="36" fill="#294270">capital</tspan>
    </text>
    <text transform="matrix(1, 0, 0, 1, 226.884, 20)">
      <tspan x="-61.884" y="13.5" font-family="Roboto-Bold" font-size="36" fill="#294270">number</tspan>
    </text>
    <path d="M240,129.5 C234.617,129.5 230.254,125.023 230.254,119.5 C230.254,113.977 234.617,109.5 240,109.5 C245.383,109.5 249.746,113.977 249.746,119.5 C249.746,125.023 245.383,129.5 240,129.5 z" fill="#294270"/>
    <path d="M210,129.5 C204.617,129.5 200.254,125.023 200.254,119.5 C200.254,113.977 204.617,109.5 210,109.5 C215.383,109.5 219.746,113.977 219.746,119.5 C219.746,125.023 215.383,129.5 210,129.5 z" fill="#294270"/>
  </g>
</svg>
