<?xml version="1.0" encoding="UTF-8"?>
<!DOCTYPE svg PUBLIC "-//W3C//DTD SVG 1.1//EN" "http://www.w3.org/Graphics/SVG/1.1/DTD/svg11.dtd">
<svg version="1.1" xmlns="http://www.w3.org/2000/svg" xmlns:xlink="http://www.w3.org/1999/xlink" x="0" y="0" width="640" height="150" viewBox="0, 0, 640, 150">
  <g id="Background">
    <rect x="0" y="0" width="640" height="150" fill="#000000" fill-opacity="0"/>
  </g>
  <g id="Layer_1">
    <g>
      <path d="M30.5,45.5 L60.5,45.5 L60.5,75.5 L30.5,75.5 L30.5,45.5 z" fill="#8FC7ED"/>
      <path d="M30.5,45.5 L60.5,45.5 L60.5,75.5 L30.5,75.5 L30.5,45.5 z" fill-opacity="0" stroke="#294270" stroke-width="2"/>
    </g>
    <g>
      <path d="M60.5,45.5 L90.5,45.5 L90.5,75.5 L60.5,75.5 L60.5,45.5 z" fill="#8FC7ED"/>
      <path d="M60.5,45.5 L90.5,45.5 L90.5,75.5 L60.5,75.5 L60.5,45.5 z" fill-opacity="0" stroke="#294270" stroke-width="2"/>
    </g>
    <g>
      <path d="M30.5,105.5 L60.5,105.5 L60.5,135.5 L30.5,135.5 L30.5,105.5 z" fill="#8FC7ED"/>
      <path d="M30.5,105.5 L60.5,105.5 L60.5,135.5 L30.5,135.5 L30.5,105.5 z" fill-opacity="0" stroke="#294270" stroke-width="2"/>
    </g>
    <g>
      <path d="M60.5,105.5 L90.5,105.5 L90.5,135.5 L60.5,135.5 L60.5,105.5 z" fill="#8FC7ED"/>
      <path d="M60.5,105.5 L90.5,105.5 L90.5,135.5 L60.5,135.5 L60.5,105.5 z" fill-opacity="0" stroke="#294270" stroke-width="2"/>
    </g>
    <g>
      <path d="M30.5,75.5 L60.5,75.5 L60.5,105.5 L30.5,105.5 L30.5,75.5 z" fill="#8FC7ED"/>
      <path d="M30.5,75.5 L60.5,75.5 L60.5,105.5 L30.5,105.5 L30.5,75.5 z" fill-opacity="0" stroke="#294270" stroke-width="2"/>
    </g>
    <g>
      <path d="M60.5,75.5 L90.5,75.5 L90.5,105.5 L60.5,105.5 L60.5,75.5 z" fill="#8FC7ED"/>
      <path d="M60.5,75.5 L90.5,75.5 L90.5,105.5 L60.5,105.5 L60.5,75.5 z" fill-opacity="0" stroke="#294270" stroke-width="2"/>
    </g>
    <path d="M45,100 C39.617,100 35.254,95.523 35.254,90 C35.254,84.477 39.617,80 45,80 C50.383,80 54.746,84.477 54.746,90 C54.746,95.523 50.383,100 45,100 z" fill="#294270"/>
    <text transform="matrix(1, 0, 0, 1, 60.293, 20.5)">
      <tspan x="-4.641" y="13.5" font-family="Roboto-Bold" font-size="36" fill="#294270">,</tspan>
    </text>
    <g>
      <path d="M135.5,45.5 L165.5,45.5 L165.5,75.5 L135.5,75.5 L135.5,45.5 z" fill="#8FC7ED"/>
      <path d="M135.5,45.5 L165.5,45.5 L165.5,75.5 L135.5,75.5 L135.5,45.5 z" fill-opacity="0" stroke="#294270" stroke-width="2"/>
    </g>
    <g>
      <path d="M165.5,45.5 L195.5,45.5 L195.5,75.5 L165.5,75.5 L165.5,45.5 z" fill="#8FC7ED"/>
      <path d="M165.5,45.5 L195.5,45.5 L195.5,75.5 L165.5,75.5 L165.5,45.5 z" fill-opacity="0" stroke="#294270" stroke-width="2"/>
    </g>
    <g>
      <path d="M135.5,105.5 L165.5,105.5 L165.5,135.5 L135.5,135.5 L135.5,105.5 z" fill="#8FC7ED"/>
      <path d="M135.5,105.5 L165.5,105.5 L165.5,135.5 L135.5,135.5 L135.5,105.5 z" fill-opacity="0" stroke="#294270" stroke-width="2"/>
    </g>
    <g>
      <path d="M165.5,105.5 L195.5,105.5 L195.5,135.5 L165.5,135.5 L165.5,105.5 z" fill="#8FC7ED"/>
      <path d="M165.5,105.5 L195.5,105.5 L195.5,135.5 L165.5,135.5 L165.5,105.5 z" fill-opacity="0" stroke="#294270" stroke-width="2"/>
    </g>
    <g>
      <path d="M135.5,75.5 L165.5,75.5 L165.5,105.5 L135.5,105.5 L135.5,75.5 z" fill="#8FC7ED"/>
      <path d="M135.5,75.5 L165.5,75.5 L165.5,105.5 L135.5,105.5 L135.5,75.5 z" fill-opacity="0" stroke="#294270" stroke-width="2"/>
    </g>
    <g>
      <path d="M165.5,75.5 L195.5,75.5 L195.5,105.5 L165.5,105.5 L165.5,75.5 z" fill="#8FC7ED"/>
      <path d="M165.5,75.5 L195.5,75.5 L195.5,105.5 L165.5,105.5 L165.5,75.5 z" fill-opacity="0" stroke="#294270" stroke-width="2"/>
    </g>
    <path d="M150,100 C144.617,100 140.254,95.523 140.254,90 C140.254,84.477 144.617,80 150,80 C155.383,80 159.746,84.477 159.746,90 C159.746,95.523 155.383,100 150,100 z" fill="#294270"/>
    <text transform="matrix(1, 0, 0, 1, 165.293, 20.5)">
      <tspan x="-5.238" y="13.5" font-family="Roboto-Bold" font-size="36" fill="#294270">.</tspan>
    </text>
    <g>
      <path d="M240.5,45.5 L270.5,45.5 L270.5,75.5 L240.5,75.5 L240.5,45.5 z" fill="#8FC7ED"/>
      <path d="M240.5,45.5 L270.5,45.5 L270.5,75.5 L240.5,75.5 L240.5,45.5 z" fill-opacity="0" stroke="#294270" stroke-width="2"/>
    </g>
    <g>
      <path d="M270.5,45.5 L300.5,45.5 L300.5,75.5 L270.5,75.5 L270.5,45.5 z" fill="#8FC7ED"/>
      <path d="M270.5,45.5 L300.5,45.5 L300.5,75.5 L270.5,75.5 L270.5,45.5 z" fill-opacity="0" stroke="#294270" stroke-width="2"/>
    </g>
    <g>
      <path d="M240.5,105.5 L270.5,105.5 L270.5,135.5 L240.5,135.5 L240.5,105.5 z" fill="#8FC7ED"/>
      <path d="M240.5,105.5 L270.5,105.5 L270.5,135.5 L240.5,135.5 L240.5,105.5 z" fill-opacity="0" stroke="#294270" stroke-width="2"/>
    </g>
    <g>
      <path d="M270.5,105.5 L300.5,105.5 L300.5,135.5 L270.5,135.5 L270.5,105.5 z" fill="#8FC7ED"/>
      <path d="M270.5,105.5 L300.5,105.5 L300.5,135.5 L270.5,135.5 L270.5,105.5 z" fill-opacity="0" stroke="#294270" stroke-width="2"/>
    </g>
    <g>
      <path d="M240.5,75.5 L270.5,75.5 L270.5,105.5 L240.5,105.5 L240.5,75.5 z" fill="#8FC7ED"/>
      <path d="M240.5,75.5 L270.5,75.5 L270.5,105.5 L240.5,105.5 L240.5,75.5 z" fill-opacity="0" stroke="#294270" stroke-width="2"/>
    </g>
    <g>
      <path d="M270.5,75.5 L300.5,75.5 L300.5,105.5 L270.5,105.5 L270.5,75.5 z" fill="#8FC7ED"/>
      <path d="M270.5,75.5 L300.5,75.5 L300.5,105.5 L270.5,105.5 L270.5,75.5 z" fill-opacity="0" stroke="#294270" stroke-width="2"/>
    </g>
    <path d="M255,100 C249.617,100 245.254,95.523 245.254,90 C245.254,84.477 249.617,80 255,80 C260.383,80 264.746,84.477 264.746,90 C264.746,95.523 260.383,100 255,100 z" fill="#294270"/>
    <text transform="matrix(1, 0, 0, 1, 270.293, 20.5)">
      <tspan x="-7.04" y="13.5" font-family="Roboto-Bold" font-size="36" fill="#294270">-</tspan>
    </text>
    <g>
      <path d="M345.5,45.5 L375.5,45.5 L375.5,75.5 L345.5,75.5 L345.5,45.5 z" fill="#8FC7ED"/>
      <path d="M345.5,45.5 L375.5,45.5 L375.5,75.5 L345.5,75.5 L345.5,45.5 z" fill-opacity="0" stroke="#294270" stroke-width="2"/>
    </g>
    <g>
      <path d="M375.5,45.5 L405.5,45.5 L405.5,75.5 L375.5,75.5 L375.5,45.5 z" fill="#8FC7ED"/>
      <path d="M375.5,45.5 L405.5,45.5 L405.5,75.5 L375.5,75.5 L375.5,45.5 z" fill-opacity="0" stroke="#294270" stroke-width="2"/>
    </g>
    <g>
      <path d="M345.5,105.5 L375.5,105.5 L375.5,135.5 L345.5,135.5 L345.5,105.5 z" fill="#8FC7ED"/>
      <path d="M345.5,105.5 L375.5,105.5 L375.5,135.5 L345.5,135.5 L345.5,105.5 z" fill-opacity="0" stroke="#294270" stroke-width="2"/>
    </g>
    <g>
      <path d="M375.5,105.5 L405.5,105.5 L405.5,135.5 L375.5,135.5 L375.5,105.5 z" fill="#8FC7ED"/>
      <path d="M375.5,105.5 L405.5,105.5 L405.5,135.5 L375.5,135.5 L375.5,105.5 z" fill-opacity="0" stroke="#294270" stroke-width="2"/>
    </g>
    <g>
      <path d="M345.5,75.5 L375.5,75.5 L375.5,105.5 L345.5,105.5 L345.5,75.5 z" fill="#8FC7ED"/>
      <path d="M345.5,75.5 L375.5,75.5 L375.5,105.5 L345.5,105.5 L345.5,75.5 z" fill-opacity="0" stroke="#294270" stroke-width="2"/>
    </g>
    <g>
      <path d="M375.5,75.5 L405.5,75.5 L405.5,105.5 L375.5,105.5 L375.5,75.5 z" fill="#8FC7ED"/>
      <path d="M375.5,75.5 L405.5,75.5 L405.5,105.5 L375.5,105.5 L375.5,75.5 z" fill-opacity="0" stroke="#294270" stroke-width="2"/>
    </g>
    <path d="M360,130 C354.617,130 350.254,125.523 350.254,120 C350.254,114.477 354.617,110 360,110 C365.383,110 369.746,114.477 369.746,120 C369.746,125.523 365.383,130 360,130 z" fill="#294270"/>
    <text transform="matrix(1, 0, 0, 1, 375.293, 20.5)">
      <tspan x="-8.974" y="13.5" font-family="Roboto-Bold" font-size="36" fill="#294270">?</tspan>
    </text>
    <g>
      <path d="M450.5,45.5 L480.5,45.5 L480.5,75.5 L450.5,75.5 L450.5,45.5 z" fill="#8FC7ED"/>
      <path d="M450.5,45.5 L480.5,45.5 L480.5,75.5 L450.5,75.5 L450.5,45.5 z" fill-opacity="0" stroke="#294270" stroke-width="2"/>
    </g>
    <g>
      <path d="M480.5,45.5 L510.5,45.5 L510.5,75.5 L480.5,75.5 L480.5,45.5 z" fill="#8FC7ED"/>
      <path d="M480.5,45.5 L510.5,45.5 L510.5,75.5 L480.5,75.5 L480.5,45.5 z" fill-opacity="0" stroke="#294270" stroke-width="2"/>
    </g>
    <g>
      <path d="M450.5,105.5 L480.5,105.5 L480.5,135.5 L450.5,135.5 L450.5,105.5 z" fill="#8FC7ED"/>
      <path d="M450.5,105.5 L480.5,105.5 L480.5,135.5 L450.5,135.5 L450.5,105.5 z" fill-opacity="0" stroke="#294270" stroke-width="2"/>
    </g>
    <g>
      <path d="M480.5,105.5 L510.5,105.5 L510.5,135.5 L480.5,135.5 L480.5,105.5 z" fill="#8FC7ED"/>
      <path d="M480.5,105.5 L510.5,105.5 L510.5,135.5 L480.5,135.5 L480.5,105.5 z" fill-opacity="0" stroke="#294270" stroke-width="2"/>
    </g>
    <g>
      <path d="M450.5,75.5 L480.5,75.5 L480.5,105.5 L450.5,105.5 L450.5,75.5 z" fill="#8FC7ED"/>
      <path d="M450.5,75.5 L480.5,75.5 L480.5,105.5 L450.5,105.5 L450.5,75.5 z" fill-opacity="0" stroke="#294270" stroke-width="2"/>
    </g>
    <g>
      <path d="M480.5,75.5 L510.5,75.5 L510.5,105.5 L480.5,105.5 L480.5,75.5 z" fill="#8FC7ED"/>
      <path d="M480.5,75.5 L510.5,75.5 L510.5,105.5 L480.5,105.5 L480.5,75.5 z" fill-opacity="0" stroke="#294270" stroke-width="2"/>
    </g>
    <path d="M495,130 C489.617,130 485.254,125.523 485.254,120 C485.254,114.477 489.617,110 495,110 C500.383,110 504.746,114.477 504.746,120 C504.746,125.523 500.383,130 495,130 z" fill="#294270"/>
    <text transform="matrix(1, 0, 0, 1, 480.293, 20.5)">
      <tspan x="-8.033" y="13.5" font-family="Roboto-Bold" font-size="36" fill="#294270">_</tspan>
    </text>
    <path d="M285,100 C279.617,100 275.254,95.523 275.254,90 C275.254,84.477 279.617,80 285,80 C290.383,80 294.746,84.477 294.746,90 C294.746,95.523 290.383,100 285,100 z" fill="#294270"/>
    <path d="M180,130 C174.617,130 170.254,125.523 170.254,120 C170.254,114.477 174.617,110 180,110 C185.383,110 189.746,114.477 189.746,120 C189.746,125.523 185.383,130 180,130 z" fill="#294270"/>
    <path d="M180,100 C174.617,100 170.254,95.523 170.254,90 C170.254,84.477 174.617,80 180,80 C185.383,80 189.746,84.477 189.746,90 C189.746,95.523 185.383,100 180,100 z" fill="#294270"/>
    <path d="M465,130 C459.617,130 455.254,125.523 455.254,120 C455.254,114.477 459.617,110 465,110 C470.383,110 474.746,114.477 474.746,120 C474.746,125.523 470.383,130 465,130 z" fill="#294270"/>
    <path d="M390,130 C384.617,130 380.254,125.523 380.254,120 C380.254,114.477 384.617,110 390,110 C395.383,110 399.746,114.477 399.746,120 C399.746,125.523 395.383,130 390,130 z" fill="#294270"/>
    <path d="M360,100 C354.617,100 350.254,95.523 350.254,90 C350.254,84.477 354.617,80 360,80 C365.383,80 369.746,84.477 369.746,90 C369.746,95.523 365.383,100 360,100 z" fill="#294270"/>
    <g>
      <path d="M555.5,45.5 L585.5,45.5 L585.5,75.5 L555.5,75.5 L555.5,45.5 z" fill="#8FC7ED"/>
      <path d="M555.5,45.5 L585.5,45.5 L585.5,75.5 L555.5,75.5 L555.5,45.5 z" fill-opacity="0" stroke="#294270" stroke-width="2"/>
    </g>
    <g>
      <path d="M585.5,45.5 L615.5,45.5 L615.5,75.5 L585.5,75.5 L585.5,45.5 z" fill="#8FC7ED"/>
      <path d="M585.5,45.5 L615.5,45.5 L615.5,75.5 L585.5,75.5 L585.5,45.5 z" fill-opacity="0" stroke="#294270" stroke-width="2"/>
    </g>
    <g>
      <path d="M555.5,105.5 L585.5,105.5 L585.5,135.5 L555.5,135.5 L555.5,105.5 z" fill="#8FC7ED"/>
      <path d="M555.5,105.5 L585.5,105.5 L585.5,135.5 L555.5,135.5 L555.5,105.5 z" fill-opacity="0" stroke="#294270" stroke-width="2"/>
    </g>
    <g>
      <path d="M585.5,105.5 L615.5,105.5 L615.5,135.5 L585.5,135.5 L585.5,105.5 z" fill="#8FC7ED"/>
      <path d="M585.5,105.5 L615.5,105.5 L615.5,135.5 L585.5,135.5 L585.5,105.5 z" fill-opacity="0" stroke="#294270" stroke-width="2"/>
    </g>
    <g>
      <path d="M555.5,75.5 L585.5,75.5 L585.5,105.5 L555.5,105.5 L555.5,75.5 z" fill="#8FC7ED"/>
      <path d="M555.5,75.5 L585.5,75.5 L585.5,105.5 L555.5,105.5 L555.5,75.5 z" fill-opacity="0" stroke="#294270" stroke-width="2"/>
    </g>
    <g>
      <path d="M585.5,75.5 L615.5,75.5 L615.5,105.5 L585.5,105.5 L585.5,75.5 z" fill="#8FC7ED"/>
      <path d="M585.5,75.5 L615.5,75.5 L615.5,105.5 L585.5,105.5 L585.5,75.5 z" fill-opacity="0" stroke="#294270" stroke-width="2"/>
    </g>
    <path d="M570,100 C564.617,100 560.254,95.523 560.254,90 C560.254,84.477 564.617,80 570,80 C575.383,80 579.746,84.477 579.746,90 C579.746,95.523 575.383,100 570,100 z" fill="#294270"/>
    <text transform="matrix(1, 0, 0, 1, 585.293, 20.5)">
      <tspan x="-4.896" y="13.5" font-family="Roboto-Bold" font-size="36" fill="#294270">!</tspan>
    </text>
    <path d="M570,130 C564.617,130 560.254,125.523 560.254,120 C560.254,114.477 564.617,110 570,110 C575.383,110 579.746,114.477 579.746,120 C579.746,125.523 575.383,130 570,130 z" fill="#294270"/>
    <path d="M600,100 C594.617,100 590.254,95.523 590.254,90 C590.254,84.477 594.617,80 600,80 C605.383,80 609.746,84.477 609.746,90 C609.746,95.523 605.383,100 600,100 z" fill="#294270"/>
  </g>
</svg>
